<svg width="105" height="30" viewBox="0 0 105 30" fill="none" xmlns="http://www.w3.org/2000/svg">
<g clip-path="url(#clip0_86_266)">
<path d="M100.685 29.9922H3.86661C1.69588 29.9922 0 28.3477 0 26.2284V3.64521C0 1.54287 1.69588 -0.118652 3.86661 -0.118652H100.685C102.855 -0.118652 104.551 1.54287 104.551 3.64521V26.2284C104.568 28.3477 102.855 29.9922 100.685 29.9922Z" fill="black"/>
<path d="M22.9622 14.8353C22.9453 12.3091 25.0312 11.0714 25.133 11.0206C23.9459 9.29124 22.1143 9.05388 21.4529 9.03693C19.9097 8.86738 18.4173 9.96941 17.6202 9.96941C16.8232 9.96941 15.6021 9.05388 14.2963 9.08779C12.6174 9.1217 11.0402 10.0881 10.1753 11.597C8.39462 14.6827 9.71741 19.2095 11.4302 21.6849C12.2782 22.9056 13.2788 24.2619 14.5846 24.2111C15.8565 24.1602 16.3313 23.3972 17.8746 23.3972C19.4009 23.3972 19.8418 24.2111 21.1816 24.1771C22.5552 24.1602 23.4201 22.9564 24.2342 21.7188C25.2178 20.3285 25.6078 18.9383 25.6248 18.8704C25.6078 18.8704 22.9962 17.8701 22.9622 14.8353ZM20.4523 7.39236C21.1307 6.52769 21.6055 5.37479 21.4699 4.18799C20.4693 4.23885 19.2313 4.88312 18.519 5.71388C17.8916 6.45987 17.315 7.66363 17.4676 8.79957C18.5869 8.88434 19.7401 8.24007 20.4523 7.39236Z" fill="#77777D"/>
<path d="M41.4474 24.0413H39.6667L38.6831 20.9725H35.2913L34.3586 24.0413H32.6288L35.9866 13.5974H38.0726L41.4474 24.0413ZM38.3948 19.684L37.5129 16.9544C37.4112 16.6831 37.2416 16.0219 36.9872 14.9877H36.9533C36.8515 15.4285 36.6819 16.0897 36.4615 16.9544L35.5966 19.684H38.3948ZM50.0794 20.1757C50.0794 21.4642 49.7233 22.4645 49.028 23.2105C48.4005 23.8717 47.6373 24.2108 46.7046 24.2108C45.704 24.2108 44.9918 23.8548 44.5508 23.1427V27.0931H42.8719V18.9719C42.8719 18.1751 42.855 17.3443 42.8041 16.4966H44.2795L44.3813 17.6834H44.4152C44.9748 16.7848 45.8227 16.3271 46.959 16.3271C47.8408 16.3271 48.587 16.6831 49.1806 17.3782C49.7911 18.1073 50.0794 19.0228 50.0794 20.1757ZM48.3835 20.2435C48.3835 19.5145 48.2139 18.9041 47.8917 18.4294C47.5356 17.9377 47.0438 17.6834 46.4333 17.6834C46.0263 17.6834 45.6532 17.819 45.314 18.0903C44.9748 18.3616 44.7543 18.7176 44.6526 19.1754C44.6017 19.3449 44.5848 19.5145 44.5678 19.684V20.9386C44.5678 21.4812 44.7374 21.9559 45.0766 22.3289C45.4157 22.7019 45.8567 22.8884 46.3824 22.8884C47.0099 22.8884 47.5017 22.651 47.8578 22.1593C48.197 21.6677 48.3835 21.0404 48.3835 20.2435ZM58.7454 20.1757C58.7454 21.4642 58.3892 22.4645 57.6939 23.2105C57.0664 23.8717 56.3033 24.2108 55.3706 24.2108C54.37 24.2108 53.6577 23.8548 53.2168 23.1427V27.0931H51.5548V18.9719C51.5548 18.1751 51.5379 17.3443 51.487 16.4966H52.9624L53.0642 17.6834H53.0981C53.6577 16.7848 54.5057 16.3271 55.6419 16.3271C56.5238 16.3271 57.27 16.6831 57.8635 17.3782C58.4571 18.1073 58.7454 19.0228 58.7454 20.1757ZM57.0495 20.2435C57.0495 19.5145 56.8799 18.9041 56.5577 18.4294C56.2015 17.9377 55.7097 17.6834 55.0992 17.6834C54.6922 17.6834 54.3191 17.819 53.9799 18.0903C53.6408 18.3616 53.4203 18.7176 53.3185 19.1754C53.2677 19.3788 53.2338 19.5484 53.2338 19.684V20.9386C53.2338 21.4812 53.4033 21.9559 53.7425 22.3289C54.0817 22.7019 54.5226 22.8884 55.0483 22.8884C55.6758 22.8884 56.1676 22.651 56.5238 22.1593C56.8629 21.6677 57.0495 21.0404 57.0495 20.2435ZM68.4458 21.1082C68.4458 21.9898 68.1406 22.7188 67.5131 23.2783C66.8347 23.8887 65.885 24.1939 64.664 24.1939C63.5447 24.1939 62.6459 23.9735 61.9506 23.5496L62.3406 22.1593C63.0699 22.6002 63.8839 22.8036 64.7658 22.8036C65.3932 22.8036 65.885 22.668 66.2412 22.3798C66.5973 22.0915 66.7669 21.7185 66.7669 21.2438C66.7669 20.82 66.6143 20.4639 66.326 20.1757C66.0377 19.8875 65.5628 19.6162 64.8845 19.3619C63.0529 18.6837 62.1371 17.6834 62.1371 16.361C62.1371 15.4963 62.4594 14.8012 63.1038 14.2586C63.7482 13.7161 64.6131 13.4448 65.6646 13.4448C66.6143 13.4448 67.4113 13.6144 68.0388 13.9365L67.6148 15.2928C67.0213 14.9707 66.3599 14.8181 65.6137 14.8181C65.0201 14.8181 64.5622 14.9707 64.2231 15.2589C63.9517 15.5133 63.7991 15.8354 63.7991 16.2084C63.7991 16.6153 63.9517 16.9713 64.2739 17.2256C64.5453 17.48 65.0541 17.7343 65.8002 18.0394C66.6991 18.3955 67.3605 18.8193 67.7844 19.311C68.2254 19.7857 68.4458 20.3791 68.4458 21.1082ZM73.9913 17.7512H72.1428V21.4134C72.1428 22.3458 72.4651 22.8036 73.1264 22.8036C73.4317 22.8036 73.6691 22.7867 73.8726 22.7188L73.9235 23.9904C73.6013 24.1091 73.1604 24.1769 72.6177 24.1769C71.9563 24.1769 71.4475 23.9735 71.0744 23.5666C70.7013 23.1597 70.5148 22.4815 70.5148 21.532V17.7343H69.4125V16.4796H70.5148V15.1063L72.1598 14.6147V16.4966H74.0083L73.9913 17.7512ZM82.3012 20.2096C82.3012 21.3625 81.962 22.3119 81.3006 23.0579C80.6053 23.8209 79.6895 24.2108 78.5363 24.2108C77.434 24.2108 76.5521 23.8378 75.8907 23.1088C75.2293 22.3798 74.9071 21.4473 74.9071 20.3283C74.9071 19.1584 75.2463 18.209 75.9247 17.463C76.603 16.717 77.5188 16.344 78.655 16.344C79.7573 16.344 80.6562 16.717 81.3176 17.446C81.979 18.1581 82.3012 19.0737 82.3012 20.2096ZM80.5714 20.2435C80.5714 19.5484 80.4187 18.955 80.1304 18.4633C79.7743 17.8699 79.2825 17.5647 78.6211 17.5647C77.9428 17.5647 77.434 17.8699 77.0779 18.4633C76.7726 18.955 76.6369 19.5653 76.6369 20.2774C76.6369 20.9725 76.7896 21.5659 77.0779 22.0576C77.434 22.651 77.9428 22.9562 78.6041 22.9562C79.2486 22.9562 79.7404 22.651 80.1135 22.0407C80.4187 21.532 80.5714 20.9386 80.5714 20.2435ZM87.745 17.9716C87.5754 17.9377 87.3888 17.9208 87.2192 17.9208C86.6257 17.9208 86.1678 18.1412 85.8625 18.582C85.5912 18.9719 85.4386 19.4636 85.4386 20.074V24.0243H83.7596V18.8702C83.7596 18.0734 83.7427 17.2935 83.7088 16.4966H85.1672L85.2351 17.9377H85.2859C85.4555 17.446 85.7438 17.0391 86.1169 16.7509C86.473 16.4966 86.897 16.344 87.321 16.344C87.4736 16.344 87.6093 16.361 87.745 16.3779V17.9716ZM95.2407 19.9044C95.2407 20.1587 95.2238 20.4131 95.1729 20.6674H90.1531C90.1701 21.4134 90.4075 21.9898 90.8823 22.3798C91.3063 22.7358 91.849 22.9053 92.5273 22.9053C93.2735 22.9053 93.9519 22.7867 94.5624 22.5493L94.8168 23.7022C94.1045 24.0074 93.2566 24.16 92.2899 24.16C91.1198 24.16 90.204 23.8209 89.5426 23.1257C88.8812 22.4306 88.542 21.5151 88.542 20.3622C88.542 19.2262 88.8473 18.2768 89.4747 17.5308C90.1192 16.717 91.001 16.3271 92.1034 16.3271C93.1887 16.3271 94.0197 16.734 94.5624 17.5308C95.0203 18.1751 95.2407 18.9719 95.2407 19.9044ZM93.6466 19.4806C93.6636 18.9889 93.5449 18.5481 93.3244 18.192C93.0361 17.7173 92.5952 17.4969 91.9847 17.4969C91.442 17.4969 90.9841 17.7173 90.6449 18.1751C90.3736 18.5311 90.204 18.9719 90.1531 19.4806H93.6466Z" fill="#77777D"/>
<path d="M34.7995 9.90119C34.3416 9.90119 33.9346 9.88423 33.5954 9.83337V4.78098C34.0703 4.71316 34.5451 4.67926 35.02 4.67926C36.9363 4.67926 37.8182 5.6287 37.8182 7.17154C37.8182 8.93479 36.7837 9.90119 34.7995 9.90119ZM35.0878 5.32352C34.8334 5.32352 34.613 5.34047 34.4264 5.37438V9.20606C34.5282 9.22302 34.7147 9.22302 34.9861 9.22302C36.241 9.22302 36.9533 8.51093 36.9533 7.17154C36.9533 5.98474 36.3088 5.32352 35.0878 5.32352ZM40.5825 9.9351C39.4971 9.9351 38.8018 9.12129 38.8018 8.03621C38.8018 6.90027 39.5141 6.08646 40.6503 6.08646C41.7187 6.08646 42.431 6.84941 42.431 7.98535C42.431 9.12129 41.6848 9.9351 40.5825 9.9351ZM40.6164 6.66291C40.0228 6.66291 39.6328 7.2224 39.6328 8.0023C39.6328 8.76525 40.0228 9.32474 40.5994 9.32474C41.176 9.32474 41.5661 8.73134 41.5661 7.98535C41.5661 7.23936 41.193 6.66291 40.6164 6.66291ZM48.604 6.13733L47.4508 9.83337H46.6876L46.2128 8.22271C46.0941 7.83276 45.9923 7.42586 45.9075 7.01895H45.8906C45.8227 7.42586 45.721 7.83276 45.5853 8.22271L45.0765 9.83337H44.3134L43.228 6.13733H44.076L44.4999 7.90058C44.6017 8.32444 44.6865 8.71439 44.7543 9.08738H44.7713C44.8391 8.7822 44.9239 8.39225 45.0765 7.90058L45.6023 6.13733H46.2806L46.7894 7.86667C46.9081 8.29053 47.0099 8.69743 47.0946 9.08738H47.1116C47.1625 8.71439 47.2473 8.30748 47.366 7.86667L47.8239 6.13733H48.604ZM52.8606 9.85033H52.0297V7.71408C52.0297 7.05286 51.7753 6.73073 51.2835 6.73073C50.7917 6.73073 50.4525 7.15459 50.4525 7.62931V9.83337H49.6215V7.20545C49.6215 6.88332 49.6215 6.52728 49.5876 6.15428H50.3168L50.3507 6.73073H50.3677C50.5882 6.34078 51.0461 6.08646 51.5379 6.08646C52.318 6.08646 52.8267 6.67987 52.8267 7.64626L52.8606 9.85033ZM55.1331 9.85033H54.3021V4.44189H55.1331V9.85033ZM58.1348 9.9351C57.0495 9.9351 56.3542 9.12129 56.3542 8.03621C56.3542 6.90027 57.0664 6.08646 58.2027 6.08646C59.2711 6.08646 59.9834 6.84941 59.9834 7.98535C59.9834 9.12129 59.2372 9.9351 58.1348 9.9351ZM58.1688 6.66291C57.5752 6.66291 57.1851 7.2224 57.1851 8.0023C57.1851 8.76525 57.5752 9.32474 58.1518 9.32474C58.7284 9.32474 59.1185 8.73134 59.1185 7.98535C59.1185 7.23936 58.7454 6.66291 58.1688 6.66291ZM63.2225 9.85033L63.1546 9.42647H63.1377C62.8833 9.76555 62.5272 9.9351 62.0523 9.9351C61.3909 9.9351 60.9161 9.47733 60.9161 8.85002C60.9161 7.93449 61.7132 7.45976 63.0868 7.45976V7.39195C63.0868 6.90027 62.8324 6.66291 62.3237 6.66291C61.9506 6.66291 61.6453 6.74768 61.357 6.93418L61.1874 6.39164C61.5266 6.17124 61.9506 6.06951 62.4593 6.06951C63.426 6.06951 63.9178 6.57814 63.9178 7.5954V8.95175C63.9178 9.32474 63.9348 9.61297 63.9687 9.83337L63.2225 9.85033ZM63.1038 8.0023C62.188 8.0023 61.7301 8.22271 61.7301 8.74829C61.7301 9.13824 61.9675 9.32474 62.2897 9.32474C62.7137 9.32474 63.1038 9.00261 63.1038 8.57875V8.0023ZM67.9031 9.85033L67.8692 9.25692H67.8522C67.6148 9.69774 67.2248 9.9351 66.6651 9.9351C65.7663 9.9351 65.1049 9.1552 65.1049 8.05317C65.1049 6.90027 65.7833 6.08646 66.733 6.08646C67.2248 6.08646 67.5809 6.25601 67.7844 6.59509H67.8014V4.44189H68.6324V8.85002C68.6324 9.20606 68.6493 9.54515 68.6663 9.85033H67.9031ZM67.7844 7.66322C67.7844 7.13763 67.4452 6.69682 66.9195 6.69682C66.309 6.69682 65.9359 7.23936 65.9359 8.0023C65.9359 8.74829 66.326 9.25692 66.9025 9.25692C67.4283 9.25692 67.7844 8.79916 67.7844 8.27357V7.66322ZM73.8387 9.9351C72.7533 9.9351 72.058 9.12129 72.058 8.03621C72.058 6.90027 72.7703 6.08646 73.9065 6.08646C74.9749 6.08646 75.6872 6.84941 75.6872 7.98535C75.6703 9.12129 74.941 9.9351 73.8387 9.9351ZM73.8557 6.66291C73.2621 6.66291 72.889 7.2224 72.889 8.0023C72.889 8.76525 73.2791 9.32474 73.8557 9.32474C74.4323 9.32474 74.8223 8.73134 74.8223 7.98535C74.8223 7.23936 74.4492 6.66291 73.8557 6.66291ZM80.0965 9.85033H79.2655V7.71408C79.2655 7.05286 79.0111 6.73073 78.5193 6.73073C78.0275 6.73073 77.7053 7.15459 77.7053 7.62931V9.83337H76.8743V7.20545C76.8743 6.88332 76.8743 6.52728 76.8404 6.15428H77.5696L77.6036 6.73073H77.6205C77.841 6.34078 78.2989 6.08646 78.7907 6.08646C79.5708 6.08646 80.0796 6.67987 80.0796 7.64626L80.0965 9.85033ZM85.642 6.76464H84.7432V8.5618C84.7432 9.01956 84.8959 9.23997 85.2181 9.23997C85.3707 9.23997 85.4894 9.22302 85.5912 9.20606L85.6081 9.83337C85.4555 9.90119 85.235 9.91814 84.9637 9.91814C84.3193 9.91814 83.9292 9.5621 83.9292 8.62961V6.76464H83.3865V6.15428H83.9292V5.47611L84.7432 5.23875V6.15428H85.642V6.76464ZM90.0005 9.85033H89.1864V7.73103C89.1864 7.06982 88.9321 6.73073 88.4403 6.73073C88.0163 6.73073 87.6093 7.01895 87.6093 7.61235V9.85033H86.7952V4.44189H87.6093V6.66291H87.6262C87.8806 6.25601 88.2537 6.05256 88.7455 6.05256C89.5256 6.05256 90.0005 6.66291 90.0005 7.62931V9.85033ZM94.4606 8.1888H91.9846C92.0016 8.88393 92.4595 9.29083 93.1548 9.29083C93.5279 9.29083 93.8501 9.22302 94.1554 9.12129L94.291 9.69774C93.9349 9.85033 93.5279 9.91814 93.0531 9.91814C91.8998 9.91814 91.2045 9.18911 91.2045 8.05317C91.2045 6.91723 91.8998 6.06951 92.9513 6.06951C93.901 6.06951 94.4945 6.76464 94.4945 7.83276C94.4945 7.95144 94.4776 8.07012 94.4606 8.1888ZM93.7144 7.61235C93.7144 7.03591 93.4261 6.629 92.9004 6.629C92.4256 6.629 92.0525 7.03591 92.0016 7.61235H93.7144Z" fill="#77777D"/>
</g>
<defs>
<clipPath id="clip0_86_266">
<rect width="104.562" height="29.9967" fill="white"/>
</clipPath>
</defs>
</svg>
