<svg width="15" height="15" viewBox="0 0 15 15" fill="none" xmlns="http://www.w3.org/2000/svg">
<g clip-path="url(#clip0_86_339)">
<path d="M3 6.499C4.166 8.83 6.165 10.748 8.501 12L10.335 10.166C10.586 9.915 10.92 9.832 11.167 10.001C12.082 10.335 13.084 10.5 14.167 10.5C14.667 10.5 15 10.834 15 11.332V14.167C15 14.667 14.666 15 14.168 15C6.334 15 0 8.666 0 0.832C0 0.334 0.334 0 0.833 0H3.75C4.249 0 4.582 0.334 4.582 0.833C4.582 1.833 4.747 2.831 5.082 3.833C5.164 4.083 5.082 4.418 4.916 4.665L3 6.499Z" fill="#1C1C26"/>
</g>
<defs>
<clipPath id="clip0_86_339">
<rect width="15" height="15" rx="5" fill="white"/>
</clipPath>
</defs>
</svg>
