<svg width="50" height="50" viewBox="0 0 50 50" fill="none" xmlns="http://www.w3.org/2000/svg">
<g clip-path="url(#clip0_50_227)">
<g clip-path="url(#clip1_50_227)">
<path d="M36.25 0.107422C35.5078 0.185547 34.1699 0.517578 25.7617 2.67578C23.9941 3.125 22.5586 3.48633 22.5586 3.4668C22.5586 3.45703 22.4219 2.91992 22.2559 2.28516C21.9238 1.00586 21.7188 0.683594 21.2598 0.683594C20.8984 0.683594 14.7852 2.24609 14.5996 2.38281C14.2773 2.61719 14.2773 3.03711 14.5801 4.22852C14.7363 4.86328 14.8438 5.41016 14.8047 5.43945C14.7559 5.48828 3.81836 8.33008 0.654297 9.12109C0.234375 9.21875 0 9.52148 0 9.93164C0 10.4688 0.429688 12.0312 0.742188 12.6758C1.11328 13.4473 2.04102 14.3457 2.8418 14.7266L3.48633 15.0391L3.60352 16.3281C4.05273 21.2305 5.72266 26.3574 7.98828 29.7852C8.7207 30.8984 9.94141 32.1094 10.6934 32.4707C11.8164 33.0273 11.4453 33.0859 21.0352 30.625C25.752 29.4043 29.6289 28.4277 29.6387 28.4375C29.6582 28.457 29.7363 28.7305 29.834 29.0527C30.3223 30.7715 31.6016 31.8945 33.2129 32.0117L33.8672 32.0605L33.7207 32.4902C33.6133 32.793 33.584 33.1836 33.6133 33.8184C33.6426 34.5801 33.6914 34.8047 33.9551 35.332L34.2578 35.9375H33.6621C32.959 35.9375 32.5293 36.1523 32.2266 36.6406C32.0508 36.9336 32.0312 37.1387 32.0312 38.6719C32.0312 40.2051 32.0508 40.4102 32.2266 40.7031C32.5391 41.2012 32.959 41.4062 33.7012 41.4062H34.3555L34.3945 42.3633C34.4238 43.1738 34.4727 43.4082 34.7168 43.8965C35.0781 44.6484 35.8301 45.3906 36.5723 45.7617L37.1582 46.0449L40.459 46.0742L43.75 46.1035V47.8516C43.75 49.4824 43.7598 49.6191 43.9453 49.8047C44.1309 49.9902 44.2676 50 46.875 50C49.4824 50 49.6191 49.9902 49.8047 49.8047C50 49.6094 50 49.4824 50 38.6719C50 27.8613 50 27.7344 49.8047 27.5391C49.6191 27.3535 49.4824 27.3438 47.6562 27.3438C45.8301 27.3438 45.6934 27.3535 45.5078 27.5391C45.3125 27.7344 45.3125 27.8613 45.3125 33.3398C45.3125 37.2656 45.2832 39.0332 45.2051 39.2578C45.0488 39.6777 44.6289 39.8438 43.7012 39.8438H42.9688V38.3984C42.9688 37.1387 42.9492 36.9238 42.7734 36.6406C42.4707 36.1523 42.041 35.9375 41.3379 35.9375H40.7324L41.0449 35.332C41.3477 34.7656 41.3574 34.6777 41.3574 33.6035C41.3574 32.5488 41.3379 32.4316 41.0742 31.8945C40.918 31.582 40.6152 31.1328 40.3906 30.9082L39.9902 30.4883L40.3125 30.3125C40.4883 30.2246 40.8203 29.9316 41.0547 29.6875C41.9336 28.7402 42.3145 27.5098 42.0996 26.2988C41.8945 25.2051 41.8555 25.293 42.6758 25.0488C45.0586 24.3555 46.709 22.793 47.5293 20.4883C47.7344 19.8926 47.7832 19.5508 47.8125 18.457L47.8613 17.1387L47.2852 14.9316L46.7188 12.7344L47.9785 12.4023C49.3457 12.0508 49.5117 11.9336 49.5117 11.3281C49.5117 10.8887 48.8379 8.36914 48.4473 7.36328C46.9141 3.4082 43.0664 0.556641 38.6621 0.0976562C37.5684 -0.00976562 37.4121 -0.00976562 36.25 0.107422ZM39.9023 2.00195C42.9492 2.77344 45.3711 4.75586 46.6895 7.55859C47.1387 8.51562 47.7344 10.6055 47.5977 10.7227C47.5488 10.7715 46.6797 11.0254 45.6641 11.2793C44.3848 11.6113 43.7695 11.8164 43.6426 11.9531C43.3887 12.2266 43.3984 12.793 43.6719 13.0762C43.8574 13.2812 43.9355 13.3008 44.4922 13.252L45.1074 13.1934L45.2051 13.5547C46.2305 17.4414 46.3574 18.3594 46.0449 19.5801C45.625 21.1816 44.3066 22.666 42.793 23.2422C42.207 23.4668 23.2422 28.3496 23.1836 28.291C23.1543 28.2715 23.1836 28.125 23.252 27.9688C23.6523 26.9238 23.8379 24.0234 23.6426 21.9141C23.3301 18.6523 22.4414 15.0684 21.2109 12.2168L20.8203 11.3281L21.2305 11.2207C21.4453 11.1719 21.7871 11.084 21.9727 11.0254C22.1582 10.9766 22.5391 10.9375 22.8027 10.9375C24.2188 10.9375 25.2246 11.748 25.7812 13.3105C26.1133 14.248 26.4941 14.8926 27.0703 15.4492C27.9785 16.3379 29.6191 16.9043 30.8008 16.7578C31.7871 16.6309 37.0996 15.2148 37.3047 15.0195C37.7051 14.6484 37.4902 13.7598 36.9629 13.6328C36.8066 13.5938 35.625 13.8477 33.623 14.3652C30.9863 15.0391 30.4492 15.1465 30.0293 15.0977C28.8477 14.9414 27.8223 14.082 27.4316 12.9102C27.0898 11.8652 26.6797 11.1719 26.0352 10.5664C25.0586 9.6582 24.1113 9.28711 22.7637 9.27734C22.1289 9.27734 20.9473 9.56055 13.6719 11.4258C9.07227 12.6074 5.15625 13.5742 4.9707 13.5742C4.0918 13.5742 2.96875 12.998 2.48047 12.2949C2.25586 11.9629 1.72852 10.6543 1.79688 10.5762C1.81641 10.5566 13.5059 7.54883 29.0918 3.54492C32.7734 2.60742 36.0645 1.79688 36.416 1.75781C37.3633 1.64062 38.8867 1.74805 39.9023 2.00195ZM20.7129 2.94922C20.7715 3.18359 20.8301 3.49609 20.8398 3.65234L20.8496 3.93555L18.6914 4.49219L16.5234 5.04883L16.3379 4.35547C16.2109 3.89648 16.1816 3.65234 16.25 3.63281C16.7676 3.47656 20.3027 2.55859 20.4297 2.54883C20.5469 2.53906 20.6348 2.66602 20.7129 2.94922ZM19.4824 12.4512C20.625 14.9512 21.5723 18.4473 21.9238 21.4844C22.3438 25 21.8359 28.3496 20.8105 28.9062C20.6348 28.9941 14.9219 30.4785 14.8828 30.4395C14.873 30.4297 14.9414 30.1074 15.0391 29.7363C15.9668 26.1035 15.1562 19.9414 13.0859 14.8438C12.8125 14.1699 12.5781 13.584 12.5684 13.5352C12.5586 13.4863 14.0234 13.0664 15.8203 12.5977C17.6172 12.1289 19.1016 11.7383 19.1211 11.7285C19.1406 11.7188 19.3066 12.0508 19.4824 12.4512ZM11.3574 15.0391C13.6328 20.4199 14.4336 27.2168 13.1348 30.127C12.5488 31.4551 11.7676 31.4746 10.5273 30.2148C9.59961 29.2676 9.0625 28.4668 8.25195 26.8555C6.66016 23.6816 5.58594 19.7852 5.23438 15.9082L5.17578 15.2637L5.89844 15.127L6.62109 14.9805L6.67969 15.8203C6.95312 19.2383 8.01758 23.1641 9.49219 26.123C10.4688 28.0957 10.9863 28.7207 11.5332 28.584C12.168 28.418 12.2949 28.0469 12.3047 26.2207C12.3145 22.998 11.4258 18.9062 9.96094 15.459C9.69727 14.834 9.50195 14.2969 9.53125 14.2676C9.62891 14.1699 10.791 13.8965 10.8594 13.9551C10.8887 13.9844 11.1133 14.4727 11.3574 15.0391ZM9.0918 17.8711C9.62891 19.4043 10.0195 20.9766 10.3125 22.6367C10.5859 24.2578 10.5957 24.4727 10.4102 24.1211C10.1758 23.7012 9.39453 21.2891 9.0918 20.0684C8.80859 18.9258 8.39844 16.6504 8.39844 16.2598C8.4082 15.9961 8.60352 16.4551 9.0918 17.8711ZM40.4199 26.3574C40.5859 27.0703 40.4883 27.6367 40.0781 28.2422C39.6582 28.8867 39.2871 29.043 36.5723 29.7461C33.6523 30.4883 33.2617 30.5176 32.4609 30.0195C31.9434 29.6973 31.4941 29.0039 31.3965 28.3691L31.3281 27.9785L35.7129 26.8457C38.1152 26.2207 40.127 25.7129 40.1855 25.7324C40.2344 25.7422 40.3418 26.0254 40.4199 26.3574ZM48.4375 36.7188V44.541L43.1445 44.5117C38.2812 44.4824 37.8125 44.4629 37.4512 44.3066C36.5723 43.9062 36.0938 43.1836 35.9766 42.0605L35.9082 41.4062H40.5176C45.5957 41.4062 45.5176 41.416 46.1816 40.791C46.8945 40.1172 46.875 40.3223 46.875 34.2969V28.9062H47.6562H48.4375V36.7188ZM38.3594 31.5039C39.1895 31.8457 39.7461 32.6758 39.7461 33.5938C39.7461 35.5762 37.3828 36.582 35.9473 35.2246C34.4922 33.8379 35.4688 31.3574 37.4805 31.3477C37.7637 31.3477 38.1543 31.416 38.3594 31.5039ZM41.4062 38.6719V39.8438H37.5H33.5938V38.6719V37.5H37.5H41.4062V38.6719ZM48.4375 47.2656V48.4375H46.875H45.3125V47.2656V46.0938H46.875H48.4375V47.2656Z" fill="#A2A3AB"/>
<path d="M40.3027 12.6466C39.248 12.92 39.0625 13.0665 39.0625 13.6329C39.0625 13.9649 39.1113 14.0919 39.3164 14.2481C39.6484 14.5118 39.8926 14.502 40.957 14.2091C42.0215 13.9161 42.1875 13.7794 42.1875 13.2227C42.1875 12.8907 42.1387 12.7638 41.9336 12.6075C41.6113 12.3536 41.3867 12.3634 40.3027 12.6466Z" fill="#A2A3AB"/>
<path d="M36.9141 33.0078C36.7871 33.1348 36.7188 33.3301 36.7188 33.5938C36.7188 34.1113 36.9824 34.375 37.5 34.375C38.0176 34.375 38.2812 34.1113 38.2812 33.5938C38.2812 33.3301 38.2129 33.1348 38.0859 33.0078C37.959 32.8809 37.7637 32.8125 37.5 32.8125C37.2363 32.8125 37.041 32.8809 36.9141 33.0078Z" fill="#A2A3AB"/>
</g>
</g>
<defs>
<clipPath id="clip0_50_227">
<rect width="50" height="50" fill="white"/>
</clipPath>
<clipPath id="clip1_50_227">
<rect width="50" height="50" fill="white"/>
</clipPath>
</defs>
</svg>
