<svg width="50" height="50" viewBox="0 0 50 50" fill="none" xmlns="http://www.w3.org/2000/svg">
<g clip-path="url(#clip0_38_192)">
<path d="M1.50391 0.185551C0.996094 0.419926 0.419922 0.996098 0.185547 1.50391C0.00976562 1.88477 0 2.50977 0 18.0664C0 33.4961 0.00976562 34.248 0.185547 34.6191C0.449219 35.2051 0.839844 35.625 1.40625 35.918L1.9043 36.1816L13.0469 36.2109L24.1895 36.2305L24.1797 37.2363C24.1699 38.1543 24.1895 38.2715 24.4336 38.6816C24.7266 39.1699 25.1758 39.5117 26.0254 39.873L26.582 40.1074L26.25 40.3809C25.8789 40.7031 25.0391 41.1133 24.7559 41.1133C24.4336 41.123 23.7012 41.4941 23.3594 41.8262C22.8125 42.3535 22.627 42.8125 22.5684 43.8672C22.5 44.9512 22.5 44.9609 21.4844 45.625C20.8887 46.0156 20.8496 46.0645 20.8203 46.4551C20.7617 47.3145 21.4258 47.5 22.4121 46.9141C23.6914 46.1523 24.0234 45.625 24.1211 44.1992C24.1797 43.2813 24.1992 43.2129 24.4824 42.959C24.6582 42.8125 24.9609 42.666 25.1953 42.627C25.4297 42.5879 25.7617 42.5 25.9375 42.4219L26.2598 42.2852L26.1133 42.7051C26.0254 42.9297 25.5469 44.3164 25.0391 45.7715C23.9746 48.8672 23.9258 49.1406 24.4531 49.668C25.0195 50.2344 25.3418 50.1758 27.9297 49.0234L30.127 48.0566L31.0645 49.043L32.002 50.0293L32.5684 49.9805C33.4082 49.9121 33.5156 49.7559 34.4238 47.1387C34.8535 45.918 35.2246 44.9219 35.2539 44.9219C35.2832 44.9219 35.6055 45.791 35.9766 46.8555C36.3574 47.9102 36.7383 48.9648 36.8262 49.1895C37.0508 49.7168 37.4902 50 38.0859 50C38.5156 50 38.5449 49.9805 39.4629 49.0234L40.4004 48.0469L42.5781 49.0234C45.1562 50.1758 45.4883 50.2344 46.0547 49.668C46.3672 49.3555 46.4355 49.1406 46.3965 48.5742C46.3867 48.4668 45.9082 47.0117 45.332 45.3516L44.2871 42.3242L45.0684 42.5488C46.1719 42.8711 46.3867 43.1152 46.3867 44.0723C46.3867 45.3906 46.8262 46.1328 48.0273 46.8652C48.7793 47.3145 49.209 47.373 49.5215 47.0605C49.668 46.9141 49.707 46.7676 49.6875 46.4551C49.6582 46.0645 49.6289 46.0254 48.9258 45.5566C48.5254 45.293 48.1445 44.9609 48.0762 44.8242C48.0078 44.6875 47.9492 44.248 47.9492 43.8477C47.9492 42.9883 47.6855 42.334 47.1582 41.8262C46.7969 41.4941 46.0645 41.123 45.752 41.1133C45.4688 41.1133 44.6289 40.7031 44.2578 40.3809L43.9355 40.1074L44.5801 39.834C45.4199 39.4824 45.8496 39.1504 46.123 38.6426C46.3086 38.291 46.3379 38.0957 46.3281 37.2461L46.3184 36.2598L47.207 36.2109C48.5059 36.1426 49.2676 35.7031 49.7461 34.7461L50 34.2383V18.0762C50 2.50977 49.9902 1.88477 49.8145 1.50391C49.5801 0.986332 49.0625 0.478519 48.5156 0.205082L48.0859 3.8147e-06H28.6816C9.4043 3.8147e-06 9.27734 3.8147e-06 9.08203 0.195316C8.84766 0.429691 8.81836 0.947269 9.02344 1.23047C9.16016 1.41602 9.50195 1.41602 28.3887 1.46485C46.543 1.51368 47.627 1.52344 47.8809 1.68946C48.0273 1.77735 48.2227 1.97266 48.3105 2.11914C48.4766 2.37305 48.4863 3.25196 48.4863 18.1152C48.4863 33.1836 48.4766 33.8574 48.3105 34.1211C48.0859 34.4531 47.5977 34.668 47.0703 34.668H46.6797L47.1191 34.0723C48.0176 32.8418 47.9883 31.9434 46.9824 30.5859C46.123 29.4238 46.1523 29.5117 46.2891 28.3594C46.4844 26.8262 46.2598 26.0254 45.5078 25.5273L45.1172 25.2637V21.377V17.4902L44.9023 17.3438C44.6094 17.1387 44.1113 17.1484 43.8574 17.3535C43.6523 17.5293 43.6523 17.5977 43.623 21.084L43.6035 24.6289L43.3398 24.375C43.2031 24.2285 42.9492 23.7695 42.7734 23.3496C42.0508 21.543 41.377 21.1523 39.3652 21.3867C38.1543 21.5234 38.2422 21.5527 37.1094 20.7129C35.6543 19.6289 34.7461 19.6582 33.2129 20.8398C32.3145 21.5234 32.334 21.5234 31.1426 21.3867C30.5664 21.3184 29.9219 21.2988 29.7168 21.3281C29.1406 21.4355 28.5645 21.8262 28.2617 22.3145L27.9785 22.7539H20.1465C12.4316 22.7539 12.3047 22.7539 12.1094 22.9492C11.9141 23.1445 11.8555 23.5645 11.9727 23.8672C12.1289 24.2578 12.1973 24.2676 19.873 24.3164L27.2949 24.3652L26.6113 24.6973C26.2402 24.873 25.7422 25.1074 25.5176 25.2148C25.2832 25.3223 24.9609 25.5371 24.7949 25.6836L24.502 25.9668L18.3887 25.9961L12.2852 26.0254L12.0996 26.2598C11.8555 26.5625 11.8555 27.0898 12.1094 27.3438C12.3047 27.5391 12.4316 27.5391 18.2031 27.5391H24.1016L24.1504 27.8516C24.3066 28.7109 24.3359 29.375 24.2285 29.5801L24.1113 29.7852H17.002H9.89258L9.76562 29.3652C9.3457 27.9492 8.28125 26.8555 6.89453 26.4258L6.34766 26.25V18.0762V9.90235L6.91406 9.72657C8.29102 9.30664 9.52148 7.99805 9.81445 6.66016L9.88281 6.34766H24.9902H40.0977L40.2734 6.9043C40.6934 8.29102 42.002 9.52149 43.3398 9.81446L43.6523 9.88282V12.6856C43.6523 15.3418 43.6621 15.5078 43.8379 15.6641C44.0918 15.8887 44.6777 15.8887 44.9316 15.6641C45.1074 15.5078 45.1172 15.3418 45.1172 12.1387C45.1172 8.28125 45.166 8.47657 44.1992 8.35938C42.8223 8.20313 41.7969 7.17774 41.6406 5.80079C41.5918 5.45899 41.5039 5.17579 41.3867 5.0586C41.2207 4.89258 40.625 4.88282 25 4.88282C9.38477 4.88282 8.7793 4.89258 8.61328 5.0586C8.50586 5.16602 8.4082 5.44922 8.36914 5.74219C8.20312 7.17774 7.19727 8.20313 5.80078 8.35938C4.78516 8.48633 4.88281 7.46094 4.88281 18.0957C4.88281 28.7402 4.77539 27.6758 5.82031 27.832C6.5332 27.9297 6.77734 28.0273 7.29492 28.4082C7.8418 28.7988 8.18359 29.4141 8.34961 30.2832C8.56445 31.4551 7.80273 31.3477 15.9375 31.3477H22.9688L22.8906 31.6113C22.8418 31.7676 22.8027 32.1484 22.8027 32.4707C22.8027 33.1055 23.0176 33.623 23.5547 34.2969L23.8477 34.668H13.1934C1.58203 34.668 2.07031 34.6875 1.68945 34.1211C1.52344 33.8574 1.51367 33.1836 1.51367 18.1152C1.51367 3.25196 1.52344 2.37305 1.68945 2.11914C2.07031 1.53321 2.16797 1.51368 4.79492 1.48438C7.06055 1.45508 7.2168 1.44532 7.38281 1.25977C7.60742 1.00586 7.60742 0.458988 7.37305 0.195316C7.20703 0.00976944 7.09961 3.8147e-06 4.55078 3.8147e-06C2.17773 3.8147e-06 1.86523 0.0195351 1.50391 0.185551ZM35.8105 21.748C36.0254 21.9043 36.4746 22.207 36.8164 22.4316C37.7539 23.0664 38.1934 23.1445 39.5898 22.9395C40.7324 22.7637 40.7422 22.7637 41.4062 24.1699C42.0801 25.5664 42.168 25.6445 43.6621 26.3477C44.2676 26.6309 44.7266 26.9043 44.7656 27.0117C44.8047 27.1191 44.7852 27.7051 44.7168 28.3203C44.5801 29.668 44.6387 29.9707 45.2344 30.8594C45.4688 31.1914 45.7715 31.6504 45.9277 31.8652C46.0742 32.0898 46.1914 32.3438 46.1914 32.4316C46.1914 32.5195 46.0352 32.8223 45.8496 33.0957C45.6641 33.3691 45.3516 33.8184 45.166 34.0918C44.6484 34.8438 44.5801 35.2051 44.7168 36.5234C44.7852 37.1387 44.8047 37.7246 44.7656 37.832C44.7266 37.9395 44.2578 38.2227 43.6035 38.5254C42.2559 39.1602 41.9434 39.4727 41.416 40.6543C41.2012 41.1523 40.9375 41.6602 40.8203 41.7871C40.625 42.002 40.5859 42.0117 39.8633 41.9336C38.6523 41.7969 37.793 41.8262 37.4023 42.0313C37.2168 42.1289 36.7383 42.4512 36.3379 42.7441C35.9375 43.0273 35.5078 43.291 35.3809 43.3203C35.1465 43.3887 35.0977 43.3594 33.6914 42.4023C32.8027 41.8066 32.5 41.748 31.1523 41.8848C30.5371 41.9531 29.9512 41.9727 29.8438 41.9336C29.7363 41.8945 29.4629 41.4355 29.1797 40.8301C28.4766 39.3359 28.3984 39.248 27.002 38.5742C25.5859 37.9004 25.6055 37.9199 25.7812 36.6602C25.9863 35.2148 25.8496 34.7363 24.9121 33.457C24.1602 32.4414 24.1602 32.373 24.9512 31.3477C25.8203 30.2246 25.9863 29.5996 25.7812 28.1836C25.6055 26.9336 25.6055 26.9238 26.8359 26.3574C28.3496 25.6445 28.4277 25.5664 29.1016 24.1699C29.5117 23.3203 29.7461 22.9492 29.8926 22.9004C30 22.8613 30.5371 22.8809 31.0742 22.9492C32.4805 23.125 33.1055 22.9688 34.0332 22.2168C34.5605 21.7969 35.0781 21.4844 35.2539 21.4844C35.3418 21.4844 35.5859 21.6016 35.8105 21.748ZM29.0332 43.2813C29.4922 43.5254 30.2637 43.5645 31.543 43.4277C32.2559 43.3496 32.2852 43.3496 32.7148 43.6426C32.959 43.8086 33.2812 44.043 33.4375 44.1699L33.7305 44.4043L33.0566 46.2793L32.3926 48.1543L31.709 47.4121C30.9961 46.6309 30.6348 46.3867 30.2246 46.3867C30.0879 46.3867 29.0723 46.7871 27.9688 47.2754C26.875 47.7734 25.957 48.1543 25.9375 48.1348C25.918 48.1152 26.3672 46.748 26.9434 45.1074L27.9785 42.1191L28.3008 42.5879C28.4863 42.8809 28.7793 43.1543 29.0332 43.2813ZM43.7793 45.7227C44.2383 47.0605 44.5898 48.1445 44.5605 48.1445C44.5312 48.1445 43.6133 47.7539 42.5293 47.2656C41.4453 46.7773 40.4297 46.3867 40.293 46.3867C39.8633 46.3867 39.5117 46.6309 38.7988 47.4121L38.1152 48.1641L37.4609 46.2793L36.7969 44.4043L37.1094 44.1504C38.0957 43.3691 38.1738 43.3398 38.9648 43.4277C39.3652 43.4668 40.0098 43.5059 40.3809 43.5059C41.25 43.4961 41.8164 43.2129 42.2363 42.5684L42.5293 42.1289L42.7344 42.7148C42.8516 43.0469 43.3203 44.3945 43.7793 45.7227Z" fill="#A2A3AB"/>
<path d="M33.4082 25.3906C30.8398 26.084 28.877 28.0566 28.2227 30.6152C27.959 31.6504 27.959 33.1933 28.2227 34.2285C28.8672 36.748 30.8496 38.7793 33.3105 39.4238C33.9258 39.5801 33.9746 39.5801 34.2188 39.414C34.5898 39.1797 34.6973 38.8379 34.5312 38.4277C34.4141 38.1543 34.3164 38.0859 33.8184 37.9394C31.8262 37.3633 30.2637 35.7715 29.7363 33.789C29.5508 33.0859 29.5508 31.7675 29.7461 31.0156C30.2539 29.0625 31.8945 27.4218 33.8477 26.914C34.6094 26.7187 35.9277 26.709 36.6602 26.9043C38.5938 27.4121 40.2637 29.082 40.7715 31.0156C40.957 31.748 40.957 33.0957 40.7715 33.8281C40.2637 35.7519 38.6621 37.373 36.6895 37.9394C36.084 38.1152 35.9375 38.2812 35.9375 38.8086C35.9375 39.2871 36.3281 39.5898 36.8555 39.5117C38.5059 39.248 40.5273 37.8027 41.4941 36.1914C42.2461 34.9414 42.6172 33.2031 42.4609 31.6601C42.1973 28.8476 40.2344 26.4062 37.5293 25.5078C36.4551 25.166 34.4727 25.1074 33.4082 25.3906Z" fill="#A2A3AB"/>
<path d="M34.9317 29.2188C34.668 29.4825 33.0664 31.8067 32.9785 32.0508C32.8906 32.2852 33.086 32.793 33.3008 32.9102C33.3985 32.9688 33.9063 33.0078 34.4141 33.0078H35.3418L34.7461 33.9746C34.1895 34.8926 34.1602 34.9707 34.2676 35.2637C34.4531 35.8106 34.9707 36.0059 35.4199 35.6934C35.5371 35.6153 36.0547 34.8731 36.5821 34.0625C37.6563 32.3828 37.7442 32.0801 37.2656 31.6797C37.0313 31.4746 36.9043 31.4453 36.1719 31.4453C35.7227 31.4453 35.3516 31.4258 35.3516 31.3965C35.3516 31.3672 35.5469 31.045 35.791 30.6836C36.2989 29.9317 36.3379 29.5996 35.9864 29.2481C35.6836 28.9356 35.2246 28.9258 34.9317 29.2188Z" fill="#A2A3AB"/>
<path d="M14.3555 8.17383C13.9844 8.25195 13.5645 8.58398 13.418 8.94531C13.3203 9.18945 13.2812 9.76562 13.2812 11.1328C13.2812 13.1543 13.3301 13.4277 13.8184 13.8672L14.082 14.1113H25H35.918L36.1816 13.8672C36.6699 13.4277 36.7188 13.1543 36.7188 11.1133C36.7188 9.04297 36.6602 8.75977 36.1035 8.35938C35.8301 8.1543 35.7812 8.1543 25.2148 8.14453C19.375 8.13477 14.4922 8.1543 14.3555 8.17383ZM35.1562 11.1328V12.5977H25H14.8438V11.1328V9.66797H25H35.1562V11.1328Z" fill="#A2A3AB"/>
<path d="M24.5703 15.2539C24.1309 15.6543 22.5586 17.998 22.5586 18.2715C22.5586 18.4179 22.6465 18.6426 22.7637 18.789C22.959 19.0332 22.998 19.0429 23.9355 19.0429C24.4629 19.0429 24.9023 19.0625 24.9023 19.0918C24.9023 19.1211 24.6582 19.5312 24.3652 19.9902C24.0332 20.5078 23.8281 20.9472 23.8281 21.1133C23.8281 21.6699 24.502 22.041 25 21.7773C25.2832 21.6308 27.1484 18.623 27.1484 18.3203C27.1484 17.6953 26.7578 17.4804 25.6152 17.4804H24.9023L25.3516 16.7969C25.8887 15.9863 25.9375 15.6054 25.5371 15.2539C25.4004 15.1367 25.1758 15.039 25.0488 15.039C24.9219 15.039 24.707 15.1367 24.5703 15.2539Z" fill="#A2A3AB"/>
</g>
<defs>
<clipPath id="clip0_38_192">
<rect width="50" height="50" fill="white"/>
</clipPath>
</defs>
</svg>
