<svg width="51" height="46" viewBox="0 0 51 46" fill="none" xmlns="http://www.w3.org/2000/svg">
<path d="M24.1827 0.228516C23.2563 0.632812 22.7682 1.38867 22.7682 2.41699V2.95312L21.5032 3.06738C14.2915 3.69141 7.92642 7.0752 3.92212 12.3838C1.96978 14.9854 0.74458 17.8154 0.186768 21.0059C-0.0622559 22.4209 -0.0622559 25.5674 0.186768 27.0264C1.79048 36.457 10.1875 43.6992 20.8756 44.877C23.0969 45.123 26.2645 45.0088 28.4958 44.6045C33.1475 43.7695 37.6499 41.5459 40.9469 38.4785C44.762 34.9189 46.9932 30.4717 47.4315 25.5586L47.5012 24.7852H48.1188C49.2942 24.7852 50.1907 24.3281 50.619 23.5195C50.9278 22.9395 50.9278 22.1221 50.6588 20.4434C49.1946 11.6895 42.192 4.20117 32.7291 1.27441C30.4083 0.5625 27.2407 0 25.4975 0C24.8401 0 24.611 0.0351562 24.1827 0.228516ZM27.1012 1.71387C38.4268 3.12891 47.312 10.9688 48.9157 20.9531C49.1348 22.2979 49.1149 22.7285 48.8161 22.9834L48.577 23.2031H45.2401C43.1284 23.2031 41.8036 23.168 41.6243 23.1064C41.3354 23.0098 40.8374 22.6406 40.6979 22.4033C40.6481 22.333 40.4987 21.7705 40.3592 21.1729C38.9647 15.1172 33.6057 10.3887 26.8024 9.22852C25.6668 9.03516 25.3282 8.9209 24.9895 8.5957C24.5811 8.21777 24.5612 8.00684 24.5612 4.95703V2.0127L24.8102 1.80176C25.0991 1.53809 25.5872 1.52051 27.1012 1.71387ZM22.7881 6.52148C22.818 8.75391 22.8778 8.94727 23.6747 9.71191C24.2624 10.2744 24.85 10.5117 26.3143 10.7754C29.0635 11.2676 31.3047 12.208 33.4264 13.7812C36.0561 15.7236 37.9188 18.5361 38.6061 21.5859C38.7256 22.1133 38.895 22.7197 38.9846 22.9307C39.2038 23.4668 40.0006 24.2051 40.678 24.4951C41.2358 24.7412 41.2657 24.7412 43.477 24.7676L45.6983 24.7939L45.6286 25.5146C44.742 34.708 36.7932 42.0908 26.5036 43.2861C24.9995 43.4619 22.32 43.4531 20.7561 43.2773C17.5288 42.9082 14.2317 41.8184 11.4825 40.1924C6.41235 37.2041 3.02563 32.6426 1.93989 27.334C1.67095 26.0508 1.57134 23.2031 1.74067 21.876C2.29849 17.5693 4.40024 13.6406 7.777 10.5557C10.317 8.23535 13.1459 6.64453 16.5526 5.59863C18.1961 5.09766 20.9454 4.60547 22.3399 4.5791L22.7583 4.57031L22.7881 6.52148Z" fill="black"/>
<path d="M26.5434 6.09082C26.3143 6.24023 26.1549 6.54785 26.1549 6.81152C26.1549 7.14551 26.653 7.55859 27.0514 7.55859C27.8084 7.55859 28.2367 6.66211 27.6989 6.19629C27.4299 5.9502 26.8223 5.89746 26.5434 6.09082Z" fill="black"/>
<path d="M42.5805 20.4697C42.3813 20.6455 42.2916 20.8125 42.2916 21.0059C42.2916 21.3574 42.7598 21.7969 43.1383 21.7969C43.7061 21.7969 44.0746 21.4805 44.0846 20.9795C44.0846 20.2588 43.1781 19.9512 42.5805 20.4697Z" fill="black"/>
<path d="M19.5907 6.8291C19.3616 7.04004 19.242 7.37402 18.7938 9.03516C18.4751 10.2041 18.2858 11.0742 18.3256 11.2061C18.4252 11.5488 18.7739 11.7773 19.1922 11.7773C19.8696 11.7773 19.9393 11.6631 20.537 9.50098C20.8358 8.41992 21.0749 7.43555 21.0749 7.30371C21.0649 6.66211 20.1186 6.36328 19.5907 6.8291Z" fill="black"/>
<path d="M10.6059 10.5381C10.4465 10.6787 10.317 10.8896 10.317 11.0039C10.317 11.2061 11.5621 15.0557 11.6817 15.2314C11.7813 15.3809 12.359 15.5391 12.6379 15.4951C12.9766 15.4336 13.3053 15.082 13.3053 14.7656C13.3053 14.6338 13.0164 13.6582 12.6678 12.6035C12.1399 11.0215 11.9805 10.6523 11.7614 10.4854C11.3928 10.2041 10.9645 10.2217 10.6059 10.5381Z" fill="black"/>
<path d="M21.3239 12.8936C19.6106 13.166 17.6184 13.9131 16.1741 14.8271C15.2676 15.4072 13.8233 16.6904 13.1758 17.499C11.6817 19.3623 10.8948 21.6123 10.8948 23.9941C10.8948 27.1406 12.1997 29.874 14.7297 32.0537C15.8155 32.9854 16.6522 33.5215 17.8475 34.0576C19.6504 34.875 21.5131 35.2529 23.6647 35.2529C27.2905 35.2529 30.3485 34.1104 32.8586 31.8252C35.2194 29.6631 36.4147 27.0615 36.4147 24.0381C36.4147 20.874 35.1895 18.2373 32.6893 16.0312C30.7569 14.3262 28.3961 13.2451 25.8163 12.876C24.6807 12.709 22.3897 12.7178 21.3239 12.8936ZM25.5672 14.458C30.0397 15.1436 33.6954 18.3691 34.4723 22.3154C34.6616 23.2295 34.6616 24.7852 34.4723 25.6816C33.8249 28.9072 31.2549 31.7197 27.8383 32.9678C21.7522 35.1738 14.8094 32.1416 13.0364 26.499C12.7276 25.5059 12.618 23.5723 12.8073 22.5264C13.1659 20.5312 14.152 18.791 15.7756 17.2969C17.3893 15.8203 19.4911 14.8096 21.7024 14.458C22.6786 14.2998 24.5612 14.2998 25.5672 14.458Z" fill="black"/>
<path d="M20.4274 16.3037C20.1385 16.5498 20.0887 17.0772 20.3278 17.376C20.517 17.6133 21.0948 17.7275 21.4334 17.5869C21.7323 17.4639 22.0012 16.9541 21.9116 16.6553C21.7522 16.1104 20.8756 15.8994 20.4274 16.3037Z" fill="black"/>
<path d="M22.0809 18.8965C20.009 19.3887 18.3655 20.874 17.8376 22.7197C17.6483 23.3877 17.6483 24.6006 17.8376 25.2686C18.3854 27.1582 20.0788 28.6611 22.2204 29.1357C22.9774 29.3027 24.352 29.3027 25.109 29.1357C26.653 28.793 28.1372 27.7998 28.8842 26.6221C29.9301 24.9609 29.8704 22.7285 28.7448 21.1992C27.9778 20.1445 26.7924 19.3184 25.5672 18.9756C24.601 18.7031 23.0471 18.668 22.0809 18.8965ZM24.8799 20.4785C27.5296 21.1992 28.6551 23.9502 27.151 25.998C26.7028 26.6221 26.2147 26.9912 25.3581 27.3604C24.7604 27.6152 24.6409 27.6416 23.6647 27.6416C22.6885 27.6416 22.569 27.624 21.9415 27.3604C21.0549 26.9912 20.268 26.2969 19.8497 25.5146C19.5508 24.9609 19.5309 24.8555 19.5309 23.9941C19.5309 23.1328 19.5508 23.0273 19.8497 22.5C20.2481 21.7881 20.7262 21.2871 21.3737 20.918C22.4395 20.3115 23.7046 20.1533 24.8799 20.4785Z" fill="black"/>
<path d="M22.818 21.8232C21.6924 22.2187 21.0748 22.9922 21.0748 23.9853C21.0748 25.3564 22.31 26.3672 23.844 26.2617C25.2086 26.1738 26.1449 25.3301 26.2346 24.1084C26.3043 23.2119 25.7465 22.377 24.8102 21.9463C24.3321 21.7353 23.2563 21.665 22.818 21.8232ZM24.1727 23.5459C24.4815 23.8271 24.5213 23.9853 24.342 24.2842C24.0731 24.7412 23.5153 24.8291 23.1168 24.4775C22.7184 24.1348 22.808 23.6514 23.316 23.3965C23.6348 23.2383 23.8639 23.2734 24.1727 23.5459Z" fill="black"/>
<path d="M29.9002 19.0371C29.5317 19.3623 29.5516 19.793 29.9301 20.1357C30.1293 20.3115 30.3186 20.3906 30.5377 20.3906C30.7569 20.3906 30.9461 20.3115 31.1453 20.1357C31.3446 19.96 31.4342 19.793 31.4342 19.5996C31.4342 19.4062 31.3446 19.2393 31.1453 19.0635C30.7569 18.7295 30.2688 18.7119 29.9002 19.0371Z" fill="black"/>
<path d="M14.7297 23.291C14.4508 23.3965 14.3014 23.6426 14.3014 24.0381C14.3014 24.7061 15.168 25.0313 15.7656 24.5742C15.9848 24.4072 16.0446 24.293 16.0446 23.9941C16.0446 23.3877 15.417 23.0449 14.7297 23.291Z" fill="black"/>
<path d="M30.1792 27.6855C29.3225 27.9932 29.5616 29.1797 30.478 29.1797C30.9561 29.1797 31.1254 29.1094 31.2848 28.8193C31.5139 28.4414 31.4641 28.1426 31.1454 27.8525C30.8465 27.5977 30.5676 27.5449 30.1792 27.6855Z" fill="black"/>
<path d="M20.6266 30.4277C20.2979 30.5859 20.1783 30.7793 20.1783 31.166C20.1783 31.4648 20.2281 31.5791 20.4373 31.7197C20.7561 31.9394 21.2442 31.957 21.553 31.7637C22.4295 31.2187 21.5629 29.9707 20.6266 30.4277Z" fill="black"/>
<path d="M4.95803 17.7803C4.80862 17.9209 4.73889 18.0967 4.73889 18.334C4.73889 18.6592 4.80862 18.7383 5.86448 19.6523C8.08577 21.5771 8.27502 21.709 8.67346 21.709C9.18147 21.709 9.52014 21.3926 9.52014 20.918C9.52014 20.5049 9.51018 20.4873 7.30881 18.6416C6.08362 17.6133 6.02385 17.5781 5.60549 17.5781C5.27678 17.5781 5.11741 17.6309 4.95803 17.7803Z" fill="black"/>
<path d="M38.138 25.7695C37.8491 26.0508 37.7893 26.2969 37.9089 26.5957C38.0085 26.8242 40.1102 28.6699 41.0964 29.3994C41.5845 29.7598 42.0327 29.8037 42.4311 29.5225C42.6403 29.373 42.6901 29.2676 42.6901 28.9512C42.6901 28.5557 42.6802 28.5381 41.4251 27.4746C39.3532 25.7168 39.154 25.5762 38.7157 25.5762C38.4567 25.5762 38.2774 25.6377 38.138 25.7695Z" fill="black"/>
<path d="M4.19104 26.499C4.01174 26.6484 3.94202 26.8066 3.94202 27.0527C3.94202 27.4658 4.201 27.7295 4.71897 27.8525C5.86448 28.125 8.8428 28.7402 9.02209 28.7402C9.32092 28.7402 9.81897 28.2744 9.81897 28.002C9.81897 27.6768 9.62971 27.3691 9.36077 27.2549C8.99221 27.1143 5.05764 26.2793 4.71897 26.2793C4.54963 26.2793 4.33049 26.3672 4.19104 26.499Z" fill="black"/>
<path d="M34.2731 32.7393C34.1137 32.8711 34.024 33.0469 34.024 33.2227C34.024 33.5127 35.1297 36.9844 35.3289 37.3184C35.4584 37.5381 35.817 37.7051 36.1756 37.7051C36.4944 37.7051 37.0123 37.2568 37.0123 36.9844C37.0123 36.5625 35.7274 32.9326 35.4983 32.7217C35.1994 32.4404 34.6018 32.4404 34.2731 32.7393Z" fill="black"/>
<path d="M10.6656 33.7061C8.40452 34.3125 8.12561 34.4531 8.12561 34.9893C8.12561 35.3232 8.60374 35.7715 8.95237 35.7715C9.19143 35.7715 12.5781 34.9277 13.385 34.6641C13.8631 34.5059 14.0026 34.3301 14.0026 33.8818C14.0026 33.4424 13.644 33.1348 13.136 33.1436C12.9268 33.1523 11.8211 33.4072 10.6656 33.7061Z" fill="black"/>
<path d="M27.5494 36.3691C27.3801 36.4922 27.2207 36.9229 26.7924 38.4521C26.4936 39.5156 26.2545 40.5088 26.2545 40.6582C26.2545 41.0889 26.5932 41.3965 27.0614 41.3965C27.5694 41.3965 27.7885 41.291 27.928 40.9834C28.0774 40.6494 29.0436 37.1074 29.0436 36.8965C29.0436 36.7998 28.9141 36.6064 28.7547 36.4658C28.4061 36.167 27.8981 36.123 27.5494 36.3691Z" fill="black"/>
<path d="M18.1563 37.8984C17.2897 38.6895 16.5128 39.4629 16.4331 39.6211C16.1542 40.166 16.5526 40.6934 17.2499 40.6934C17.6682 40.6934 17.6981 40.6758 19.3018 39.1992C20.1983 38.373 20.9653 37.5996 21.0052 37.4766C21.2143 36.9492 20.8059 36.4746 20.1585 36.4746C19.7401 36.4746 19.7003 36.4922 18.1563 37.8984Z" fill="black"/>
</svg>
