<svg width="15" height="15" viewBox="0 0 15 15" fill="none" xmlns="http://www.w3.org/2000/svg">
<path d="M14.729 3.33872L13.4129 2.02262C13.2325 1.84202 13.013 1.75169 12.755 1.75169C12.4968 1.75169 12.2773 1.84202 12.0969 2.02262L5.74838 8.38068L2.90321 5.52581C2.72254 5.34515 2.5032 5.25492 2.24522 5.25492C1.98707 5.25492 1.76773 5.34515 1.58707 5.52581L0.270963 6.84195C0.0902984 7.02258 0 7.24199 0 7.5001C0 7.75802 0.0902984 7.97763 0.270963 8.15822L3.77413 11.6613L5.09033 12.9774C5.2709 13.1582 5.4903 13.2484 5.74838 13.2484C6.00637 13.2484 6.22577 13.1579 6.40644 12.9774L7.72261 11.6613L14.729 4.65493C14.9095 4.47426 15 4.25489 15 3.99677C15.0001 3.73879 14.9095 3.51938 14.729 3.33872Z" fill="white"/>
</svg>
