<svg width="102" height="30" viewBox="0 0 102 30" fill="none" xmlns="http://www.w3.org/2000/svg">
<g clip-path="url(#clip0_86_274)">
<path d="M97.4997 29.9993H3.7503C1.64835 29.9993 0 28.351 0 26.249V3.75128C0 1.64933 1.64835 0.000976562 3.7503 0.000976562H97.4997C99.6016 0.000976562 101.25 1.64933 101.25 3.75128V26.2531C101.25 28.351 99.6016 29.9993 97.4997 29.9993Z" fill="black"/>
<path d="M35.5509 7.65131C35.5509 8.25071 35.4011 8.77721 35.0244 9.14981C34.5749 9.59936 34.0484 9.82616 33.3761 9.82616C32.6997 9.82616 32.1773 9.59936 31.7277 9.14981C31.2782 8.70026 31.0514 8.17376 31.0514 7.50146C31.0514 6.82916 31.2782 6.30266 31.7277 5.85311C32.1773 5.40356 32.7038 5.17676 33.3761 5.17676C33.6758 5.17676 33.9755 5.25371 34.2752 5.40356C34.5749 5.55341 34.8017 5.70326 34.9515 5.93006L34.5749 6.30671C34.2752 5.93006 33.8985 5.78021 33.3761 5.78021C32.9265 5.78021 32.477 5.93006 32.1773 6.30671C31.8006 6.60641 31.6508 7.05596 31.6508 7.58246C31.6508 8.10896 31.8006 8.55851 32.1773 8.85821C32.5539 9.15791 32.9265 9.38471 33.3761 9.38471C33.9026 9.38471 34.2752 9.23486 34.6518 8.85821C34.8786 8.63141 35.0285 8.33171 35.0285 7.95911H33.3801V7.35971H35.555L35.5509 7.65131ZM39.0015 5.77616H36.9765V7.20176H38.8517V7.72826H36.9765V9.15386H39.0015V9.75326H36.3771V5.24966H39.0015V5.77616ZM41.4761 9.74921H40.8767V5.77616H39.6009V5.24966H42.7518V5.77616H41.4761V9.74921ZM44.9267 9.74921V5.24966H45.5261V9.74921H44.9267ZM48.0735 9.74921H47.4741V5.77616H46.1984V5.24966H49.2723V5.77616H47.9966V9.74921H48.0735ZM55.2015 9.14981C54.752 9.59936 54.2255 9.82616 53.5532 9.82616C52.8768 9.82616 52.3544 9.59936 51.9048 9.14981C51.4553 8.70026 51.2285 8.17376 51.2285 7.50146C51.2285 6.82916 51.4553 6.30266 51.9048 5.85311C52.3544 5.40356 52.8809 5.17676 53.5532 5.17676C54.2255 5.17676 54.752 5.40356 55.2015 5.85311C55.6511 6.30266 55.8779 6.82916 55.8779 7.50146C55.8779 8.17376 55.6511 8.70026 55.2015 9.14981ZM52.3503 8.77721C52.65 9.07691 53.0996 9.30371 53.5491 9.30371C53.9987 9.30371 54.4482 9.15386 54.7479 8.77721C55.0476 8.47751 55.2744 8.02796 55.2744 7.50146C55.2744 6.97496 55.1246 6.52541 54.7479 6.22571C54.4482 5.92601 53.9987 5.69921 53.5491 5.69921C53.0996 5.69921 52.65 5.84906 52.3503 6.22571C52.0506 6.52541 51.8238 6.97496 51.8238 7.50146C51.8238 8.02391 51.9737 8.47751 52.3503 8.77721ZM56.7 9.74921V5.24966H57.3764L59.5512 8.77316V5.24966H60.1506V9.74921H59.5512L57.2265 6.07586V9.74921H56.7Z" fill="#77777D" stroke="white" stroke-width="0.0081" stroke-miterlimit="10"/>
<path d="M51.0746 16.3506C49.2764 16.3506 47.8508 17.6993 47.8508 19.5744C47.8508 21.3726 49.2764 22.7982 51.0746 22.7982C52.8728 22.7982 54.2984 21.4496 54.2984 19.5744C54.2984 17.6264 52.8768 16.3506 51.0746 16.3506ZM51.0746 21.4496C50.0985 21.4496 49.2764 20.6234 49.2764 19.5015C49.2764 18.3797 50.1026 17.5535 51.0746 17.5535C52.0466 17.5535 52.8728 18.3027 52.8728 19.5015C52.8768 20.6274 52.0506 21.4496 51.0746 21.4496ZM44.1005 16.3506C42.3023 16.3506 40.8767 17.6993 40.8767 19.5744C40.8767 21.3726 42.3023 22.7982 44.1005 22.7982C45.8987 22.7982 47.3243 21.4496 47.3243 19.5744C47.3243 17.6264 45.8987 16.3506 44.1005 16.3506ZM44.1005 21.4496C43.1244 21.4496 42.3023 20.6234 42.3023 19.5015C42.3023 18.3797 43.1285 17.5535 44.1005 17.5535C45.0765 17.5535 45.8987 18.3027 45.8987 19.5015C45.8987 20.6274 45.0765 21.4496 44.1005 21.4496ZM35.7737 17.3267V18.6753H39.0015C38.9246 19.4246 38.6249 20.024 38.2523 20.4006C37.8027 20.8502 37.0535 21.3767 35.7777 21.3767C33.7527 21.3767 32.2542 19.8012 32.2542 17.7762C32.2542 15.7512 33.8297 14.1758 35.7777 14.1758C36.8267 14.1758 37.6529 14.6253 38.2523 15.1518L39.2283 14.1758C38.4021 13.4265 37.3532 12.8271 35.8547 12.8271C33.1533 12.8271 30.8286 15.0789 30.8286 17.7762C30.8286 20.4735 33.1533 22.7253 35.8547 22.7253C37.3532 22.7253 38.4062 22.2758 39.3053 21.2997C40.2044 20.4006 40.5041 19.1249 40.5041 18.1488C40.5041 17.8491 40.5041 17.5494 40.4271 17.3226L35.7737 17.3267ZM69.8261 18.3756C69.5264 17.6264 68.7771 16.3506 67.1247 16.3506C65.4764 16.3506 64.1237 17.6264 64.1237 19.5744C64.1237 21.3726 65.4723 22.7982 67.2746 22.7982C68.7002 22.7982 69.5993 21.8991 69.899 21.3726L68.85 20.6234C68.4734 21.1499 68.0238 21.5225 67.2746 21.5225C66.5253 21.5225 66.0758 21.2228 65.6991 20.5464L69.9759 18.7482L69.8261 18.3756ZM65.4764 19.4246C65.4764 18.2258 66.4524 17.5494 67.1247 17.5494C67.6512 17.5494 68.1737 17.8491 68.3235 18.2258L65.4764 19.4246ZM61.9488 22.5026H63.3744V13.1268H61.9488V22.5026ZM59.7011 17.027C59.3244 16.6503 58.725 16.2777 57.9758 16.2777C56.4003 16.2777 54.9018 17.7033 54.9018 19.5015C54.9018 21.2997 56.3274 22.6524 57.9758 22.6524C58.725 22.6524 59.3244 22.2758 59.6241 21.9032H59.7011V22.3527C59.7011 23.5515 59.0247 24.2279 57.9758 24.2279C57.1496 24.2279 56.5502 23.6285 56.4003 23.102L55.2015 23.6285C55.5782 24.4547 56.4773 25.5036 58.0527 25.5036C59.7011 25.5036 61.0538 24.5276 61.0538 22.2029V16.5005H59.7051L59.7011 17.027ZM58.0487 21.4496C57.0726 21.4496 56.2505 20.6234 56.2505 19.5015C56.2505 18.3797 57.0767 17.5535 58.0487 17.5535C59.0207 17.5535 59.774 18.3797 59.774 19.5015C59.774 20.6234 59.0247 21.4496 58.0487 21.4496ZM76.3506 13.1268H72.977V22.5026H74.4026V18.9791H76.3506C77.9261 18.9791 79.4246 17.8532 79.4246 16.055C79.4246 14.2568 77.9261 13.1268 76.3506 13.1268ZM76.4235 17.6264H74.3985V14.4026H76.4235C77.4725 14.4026 78.0719 15.3017 78.0719 15.978C77.999 16.8002 77.3996 17.6264 76.4235 17.6264ZM85.05 16.2777C84.0011 16.2777 82.9481 16.7273 82.5755 17.7033L83.8512 18.2298C84.1509 17.7033 84.6005 17.5535 85.127 17.5535C85.8762 17.5535 86.5526 18.003 86.6255 18.7523V18.8292C86.3987 18.6794 85.7993 18.4526 85.1999 18.4526C83.8512 18.4526 82.4985 19.2018 82.4985 20.5545C82.4985 21.8303 83.6244 22.6565 84.8232 22.6565C85.7993 22.6565 86.2488 22.2069 86.6214 21.7574H86.6984V22.5066H88.047V18.9062C87.9012 17.2497 86.6255 16.2777 85.05 16.2777ZM84.9002 21.4496C84.4506 21.4496 83.7743 21.2228 83.7743 20.6234C83.7743 19.8741 84.6005 19.6473 85.2728 19.6473C85.8722 19.6473 86.1719 19.7972 86.5485 19.947C86.3987 20.8502 85.6494 21.4496 84.9002 21.4496ZM92.7734 16.5005L91.1979 20.5505H91.121L89.4726 16.5005H87.9741L90.4487 22.1988L89.0231 25.3497H90.4487L94.2719 16.5005H92.7734ZM80.1738 22.5026H81.5994V13.1268H80.1738V22.5026Z" fill="#77777D"/>
<path d="M7.80031 5.62646C7.57351 5.85326 7.50061 6.22587 7.50061 6.67542V23.2521C7.50061 23.7016 7.65046 24.0783 7.87726 24.301L7.95421 24.378L17.253 15.0792V14.9293L7.80031 5.62646Z" fill="#77777D"/>
<path d="M20.25 18.2263L17.1761 15.1523V14.9255L20.25 11.8516L20.327 11.9285L24.0003 14.0305C25.0493 14.6299 25.0493 15.6059 24.0003 16.2053L20.25 18.2263Z" fill="#77777D"/>
<path d="M20.327 18.1494L17.1761 14.9985L7.80032 24.3783C8.17697 24.755 8.69942 24.755 9.37577 24.4553L20.327 18.1494Z" fill="#77777D"/>
<path d="M20.327 11.8517L9.37577 5.62682C8.69942 5.25017 8.17697 5.32712 7.80032 5.70377L17.1761 15.0026L20.327 11.8517Z" fill="#77777D"/>
<path opacity="0.2" d="M20.25 18.0762L9.37577 24.2241C8.77637 24.6007 8.24987 24.5238 7.87727 24.2241L7.80032 24.301L7.87727 24.378C8.25392 24.6777 8.77637 24.7546 9.37577 24.378L20.25 18.0762Z" fill="#77777D"/>
<path opacity="0.12" d="M7.80031 24.2243C7.57351 23.9975 7.50061 23.6249 7.50061 23.1753V23.2523C7.50061 23.7018 7.65046 24.0785 7.87726 24.3012V24.2243H7.80031ZM24.0003 15.9744L20.25 18.0764L20.327 18.1533L24.0003 16.0514C24.5268 15.7517 24.7496 15.375 24.7496 15.0024C24.7496 15.375 24.4499 15.6747 24.0003 15.9744Z" fill="#77777D"/>
<path opacity="0.25" d="M9.37576 5.69955L24.0003 14.0263C24.4499 14.326 24.7496 14.6257 24.7496 15.0024C24.7496 14.6257 24.5228 14.2531 24.0003 13.9534L9.37576 5.62665C8.32681 5.02725 7.50061 5.4768 7.50061 6.6756V6.75255C7.50061 5.62665 8.32681 5.10015 9.37576 5.69955Z" fill="#77777D"/>
</g>
<defs>
<clipPath id="clip0_86_274">
<rect width="101.25" height="29.9984" fill="white" transform="translate(0 0.000976562)"/>
</clipPath>
</defs>
</svg>
