<svg width="50" height="50" viewBox="0 0 50 50" fill="none" xmlns="http://www.w3.org/2000/svg">
<g clip-path="url(#clip0_40_204)">
<path d="M37.041 0.146484C34.1309 0.673828 31.5332 2.41211 29.8242 5C28.3203 7.27539 27.7442 10.3711 28.3594 12.8125C29.2188 16.2012 32.2852 21.1133 37.002 26.6406C37.5684 27.3047 38.1445 27.9102 38.291 27.9883C38.6426 28.1641 39.4824 28.1641 39.834 27.9883C39.9805 27.9102 40.5567 27.3047 41.1231 26.6406C45.918 21.0156 48.9942 16.0742 49.8047 12.6953C50.0391 11.6895 50.0684 10.1562 49.8535 8.97461C49.082 4.52148 45.4785 0.917969 41.0254 0.146484C40.0391 -0.0292969 38.0078 -0.0292969 37.041 0.146484ZM40.752 3.37891C42.959 3.86719 45.0293 5.51758 46.0156 7.56836C46.8262 9.26758 46.9922 11.1133 46.4844 12.6465C45.9375 14.2578 44.3359 17.0508 42.4219 19.7266C41.3867 21.1816 39.2188 23.9551 39.082 24.0039C38.9746 24.0332 36.8945 21.4062 35.5957 19.5801C33.7988 17.0605 32.4805 14.7754 31.7578 12.9395C30.4883 9.6875 32.2852 5.625 35.7227 3.97461C36.1719 3.75977 36.8555 3.50586 37.2363 3.4082C38.1543 3.18359 39.8145 3.17383 40.752 3.37891Z" fill="#A2A3AB"/>
<path d="M37.7441 6.39648C36.9922 6.63086 36.2891 7.06055 35.7324 7.60742C34.8145 8.53516 34.375 9.59961 34.375 10.9375C34.375 12.2754 34.8145 13.3398 35.7324 14.2676C36.6602 15.1855 37.7246 15.625 39.0625 15.625C40.4004 15.625 41.4648 15.1855 42.3926 14.2676C43.3105 13.3398 43.75 12.2754 43.75 10.9375C43.75 9.59961 43.3105 8.53516 42.3926 7.60742C41.8066 7.03125 41.3281 6.73828 40.4395 6.43555C39.8145 6.2207 38.3691 6.20117 37.7441 6.39648ZM39.8242 9.66797C41.0938 10.4395 40.5469 12.4023 39.0625 12.4023C38.2324 12.4023 37.5977 11.7676 37.5977 10.9375C37.5977 10.1074 38.2324 9.47266 39.0625 9.47266C39.3262 9.47266 39.6289 9.55078 39.8242 9.66797Z" fill="#A2A3AB"/>
<path d="M8.80859 15.6642C4.49219 17.4025 0.830078 18.8966 0.664062 18.9845C0.507812 19.0821 0.292969 19.297 0.185547 19.4728C0.00976562 19.7657 0 20.1466 0 34.3751V48.9747L0.244141 49.3458C0.380859 49.5411 0.625 49.7755 0.78125 49.8536C1.47461 50.2052 1.51367 50.1954 9.59961 46.963L17.1875 43.9259L24.7852 46.963C30.8105 49.3751 32.4609 50.0001 32.8125 50.0001C33.1641 50.0001 34.8828 49.3458 41.2109 46.8165C45.5859 45.0685 49.2871 43.545 49.4336 43.4376C50.0293 43.0177 50 43.6036 50 32.7931C50 23.0958 50 22.8907 49.8047 22.5782C49.5117 22.1095 49.0723 21.8751 48.4375 21.8751C47.8027 21.8751 47.3633 22.1095 47.0703 22.5782C46.875 22.8907 46.875 23.0958 46.875 31.9923V41.0743L40.8203 43.4962C37.5 44.8243 34.6875 45.9376 34.5703 45.9669L34.375 46.0157V37.5782V29.131L34.1504 28.8087C33.5156 27.8517 32.1094 27.8517 31.4746 28.8087L31.25 29.131V37.5587C31.25 42.1974 31.2207 45.9962 31.1816 45.9962C31.1328 45.9962 28.3203 44.8829 24.9316 43.5353L18.75 41.0646V28.7403V16.4259L22.5098 17.9298C24.5801 18.7599 26.4062 19.4337 26.5625 19.4337C28.0566 19.4337 28.75 17.3732 27.5391 16.5333C27.4219 16.4454 25.1367 15.5079 22.4707 14.4435C18.3203 12.7735 17.5586 12.5001 17.1387 12.5099C16.7383 12.5196 15.2734 13.0665 8.80859 15.6642ZM15.625 28.7306V41.0646L9.44336 43.5255C6.05469 44.8829 3.24219 45.9962 3.19336 45.9962C3.1543 45.9962 3.125 40.4689 3.125 33.711V21.4259L9.35547 18.9259C12.7734 17.5489 15.5859 16.4161 15.6055 16.4161C15.6152 16.4064 15.625 21.9532 15.625 28.7306Z" fill="#A2A3AB"/>
</g>
<defs>
<clipPath id="clip0_40_204">
<rect width="50" height="50" fill="white"/>
</clipPath>
</defs>
</svg>
