<svg width="98" height="20" viewBox="0 0 98 20" fill="none" xmlns="http://www.w3.org/2000/svg">
<ellipse cx="23.6243" cy="10" rx="9.44972" ry="10" fill="#DAE0E2"/>
<ellipse cx="9.44972" cy="10" rx="9.44972" ry="10" fill="#9DAAAE" fill-opacity="0.85"/>
<path d="M97.4076 13.3851V13.5289H97.5208C97.5422 13.5289 97.5636 13.5217 97.5819 13.511C97.5972 13.5002 97.6064 13.4786 97.6064 13.457C97.6064 13.4355 97.5972 13.4139 97.5819 13.4031C97.5636 13.3887 97.5422 13.3851 97.5208 13.3851H97.4076ZM97.5238 13.2845C97.5727 13.2809 97.6217 13.2989 97.6614 13.3312C97.695 13.3636 97.7103 13.4103 97.7103 13.457C97.7103 13.5002 97.6981 13.5397 97.6706 13.5685C97.64 13.6008 97.6003 13.6188 97.5605 13.6224L97.7134 13.8273H97.5972L97.4566 13.6224H97.4107V13.8273H97.3129V13.2845H97.5238ZM97.4932 14.0178C97.5452 14.0178 97.5972 14.007 97.6431 13.9819C97.6889 13.9603 97.7287 13.9244 97.7653 13.8848C97.802 13.8453 97.8295 13.795 97.8479 13.741C97.8876 13.626 97.8876 13.5002 97.8479 13.3851C97.8295 13.3312 97.799 13.2845 97.7653 13.2414C97.7287 13.2018 97.6889 13.1659 97.6431 13.1443C97.5941 13.1227 97.5452 13.1083 97.4932 13.1119C97.4413 13.1119 97.3893 13.1227 97.3404 13.1443C97.2945 13.1659 97.2517 13.2018 97.215 13.2414C97.105 13.3744 97.0713 13.5721 97.1325 13.7446C97.1508 13.7985 97.1783 13.8489 97.215 13.8884C97.2517 13.9316 97.2945 13.9639 97.3404 13.9855C97.3893 14.007 97.4413 14.0214 97.4932 14.0178ZM97.4932 12.9789C97.6278 12.9789 97.7562 13.04 97.854 13.1515C97.8999 13.2054 97.9366 13.2665 97.961 13.3384C98.013 13.4822 98.013 13.6476 97.961 13.795C97.9366 13.8633 97.8999 13.928 97.854 13.9819C97.8081 14.0358 97.7531 14.0789 97.692 14.1077C97.6308 14.1401 97.5605 14.1544 97.4932 14.1544C97.4229 14.1544 97.3557 14.1401 97.2915 14.1077C97.2303 14.0789 97.1753 14.0358 97.1294 13.9819C97.0836 13.928 97.0469 13.8597 97.0224 13.7878C96.9704 13.644 96.9704 13.4786 97.0224 13.3312C97.0469 13.2629 97.0836 13.1982 97.1294 13.1443C97.1753 13.0904 97.2303 13.0472 97.2915 13.0185C97.3557 12.9861 97.4229 12.9717 97.4932 12.9717M50.68 10.876C50.68 9.84067 51.2579 8.98511 52.2026 8.98511C53.1045 8.98511 53.7129 9.80113 53.7129 10.876C53.7129 11.9508 53.1045 12.7668 52.2026 12.7668C51.2579 12.7668 50.68 11.9149 50.68 10.876ZM54.7432 10.876V7.92464H53.6517V8.6436C53.3063 8.11157 52.7804 7.77725 52.068 7.77725C50.6617 7.77725 49.558 9.07498 49.558 10.876C49.558 12.677 50.6617 13.9747 52.068 13.9747C52.7804 13.9747 53.3063 13.6404 53.6517 13.1083V13.8237H54.7432V10.876ZM91.611 10.876C91.611 9.84067 92.1888 8.98511 93.1335 8.98511C94.0385 8.98511 94.6439 9.80113 94.6439 10.876C94.6439 11.9508 94.0354 12.7668 93.1335 12.7668C92.1888 12.7668 91.611 11.9149 91.611 10.876ZM95.6742 10.876V5.55566H94.5827V8.6436C94.2372 8.11157 93.7114 7.77725 92.999 7.77725C91.5927 7.77725 90.489 9.07498 90.489 10.876C90.489 12.677 91.5927 13.9747 92.999 13.9747C93.7144 13.9747 94.2372 13.6404 94.5827 13.1083V13.8237H95.6742V10.876ZM68.2839 8.92759C68.9871 8.92759 69.4396 9.44524 69.5527 10.3583H66.9479C67.0671 9.50635 67.5074 8.92759 68.2839 8.92759ZM68.3084 7.77725C66.8378 7.77725 65.8075 9.03543 65.8075 10.876C65.8075 12.7525 66.8776 13.9747 68.3787 13.9747C69.1338 13.9747 69.8278 13.7518 70.4362 13.1479L69.9012 12.1989C69.4793 12.5943 68.9443 12.8172 68.4398 12.8172C67.7367 12.8172 67.0977 12.4325 66.9387 11.3721H70.6655C70.6778 11.2139 70.6869 11.0521 70.6869 10.8796C70.6778 9.03543 69.7117 7.77725 68.3084 7.77725ZM81.4792 10.876C81.4792 9.84067 82.057 8.98511 83.0017 8.98511C83.9036 8.98511 84.512 9.80113 84.512 10.876C84.512 11.9508 83.9036 12.7668 83.0017 12.7668C82.057 12.7632 81.4792 11.9113 81.4792 10.876ZM85.5423 10.876V7.92823H84.4509V8.64719C84.1023 8.11516 83.5795 7.78085 82.8672 7.78085C81.4608 7.78085 80.3571 9.07857 80.3571 10.8796C80.3571 12.6806 81.4608 13.9783 82.8672 13.9783C83.5826 13.9783 84.1054 13.644 84.4509 13.1119V13.8273H85.5423V10.876ZM75.3187 10.876C75.3187 12.6662 76.3796 13.9747 77.9969 13.9747C78.7521 13.9747 79.2565 13.777 79.8007 13.2701L79.2779 12.2348C78.8682 12.5799 78.4372 12.7668 77.9633 12.7668C77.092 12.7561 76.453 12.0155 76.453 10.876C76.453 9.73642 77.092 8.99948 77.9633 8.98511C78.4372 8.98511 78.8682 9.17204 79.2779 9.51714L79.8007 8.48183C79.2565 7.97497 78.7521 7.77725 77.9969 7.77725C76.3766 7.77725 75.3187 9.08576 75.3187 10.876ZM89.3853 7.77725C88.7555 7.77725 88.3458 8.12235 88.0615 8.6436V7.92823H86.9792V13.8273H88.0707V10.5201C88.0707 9.5423 88.4284 8.99948 89.1407 8.99948C89.3731 8.99589 89.6054 9.04622 89.8225 9.14687L90.1588 7.93902C89.9203 7.82758 89.6054 7.77725 89.3853 7.77725ZM60.1362 8.39556C59.6104 7.98935 58.8889 7.77725 58.0909 7.77725C56.8191 7.77725 56.0028 8.49262 56.0028 9.66452C56.0028 10.6279 56.6112 11.2211 57.7332 11.4044L58.2499 11.4907C58.8491 11.5913 59.1304 11.7747 59.1304 12.109C59.1304 12.5655 58.7329 12.8244 57.987 12.8244C57.2318 12.8244 56.6846 12.5404 56.3177 12.206L55.8041 13.2054C56.4033 13.7231 57.1584 13.9711 57.9778 13.9711C59.4269 13.9711 60.2677 13.1695 60.2677 12.0443C60.2677 11.009 59.6073 10.4662 58.5159 10.2792L58.0022 10.193C57.5314 10.1211 57.1523 10.0096 57.1523 9.6142C57.1523 9.18282 57.51 8.92399 58.1093 8.92399C58.7482 8.92399 59.3689 9.20798 59.6746 9.43086L60.1362 8.39556ZM74.215 7.78085C73.5852 7.78085 73.1756 8.12595 72.8943 8.64719V7.92823H71.812V13.8273H72.9035V10.5201C72.9035 9.5423 73.2612 8.99948 73.9735 8.99948C74.2059 8.99589 74.4382 9.04622 74.6553 9.14687L74.9916 7.93902C74.7501 7.82758 74.4352 7.77725 74.215 7.78085ZM64.9056 7.92464H63.1201V6.13443H62.0165V7.92464H60.9984V9.09654H62.0165V11.7891C62.0165 13.1587 62.4689 13.9747 63.7591 13.9747C64.233 13.9747 64.7772 13.8021 65.1257 13.5182L64.8108 12.4181C64.4837 12.641 64.1291 12.7525 63.8447 12.7525C63.3005 12.7525 63.1201 12.357 63.1201 11.7639V9.09654H64.9056V7.92464ZM48.5919 13.8273V10.1247C48.5919 8.72987 47.8368 7.79163 46.6169 7.78085C45.9779 7.77006 45.3145 8.00372 44.8528 8.83053C44.5074 8.17628 43.9601 7.78085 43.1958 7.78085C42.6608 7.78085 42.1349 7.96778 41.7252 8.65798V7.92823H40.6338V13.8273H41.7344V10.556C41.7344 9.53152 42.2175 8.9887 42.9634 8.9887C43.688 8.9887 44.0549 9.5423 44.0549 10.5452V13.8273H45.1586V10.556C45.1586 9.53152 45.663 8.9887 46.3876 8.9887C47.1336 8.9887 47.4882 9.5423 47.4882 10.5452V13.8273H48.5919Z" fill="#7D91A2"/>
</svg>
