<svg width="50" height="50" viewBox="0 0 50 50" fill="none" xmlns="http://www.w3.org/2000/svg">
<path d="M21.8163 0.120861C20.4384 0.569473 19.3737 1.47712 18.7787 2.72906C18.4864 3.35503 18.3925 3.69931 18.3194 4.50263C18.2672 5.05557 18.1733 5.58764 18.1211 5.69197C17.9019 6.08841 17.3904 6.46399 16.9833 6.51616C16.357 6.59962 16.096 6.49529 15.428 5.91106C13.8309 4.4922 11.6597 4.18965 9.75992 5.10773C9.19624 5.37899 8.75783 5.75457 7.24426 7.26732C5.70981 8.80094 5.34447 9.21825 5.07307 9.78162C4.17537 11.6595 4.47808 13.8713 5.83507 15.384C6.07516 15.6553 6.33612 15.9891 6.39875 16.1143C6.5762 16.4377 6.55532 17.0428 6.35699 17.4601C6.09603 18.0131 5.64718 18.2217 4.48852 18.3261C2.57829 18.5139 1.17954 19.4632 0.386221 21.1221L0 21.9358V25.0135V28.0912L0.386221 28.9049C1.17954 30.5637 2.57829 31.5131 4.48852 31.6905C5.86639 31.8261 6.37787 32.1704 6.49269 33.0467C6.5762 33.6518 6.47182 33.9126 5.88727 34.5803C4.40501 36.26 4.12317 38.4822 5.14614 40.3914C5.49061 41.0591 8.4238 44.0637 9.27975 44.6375C10.3653 45.3678 11.8267 45.6287 13.1315 45.3157C13.9979 45.1175 14.4676 44.8775 15.1775 44.2933C16.0334 43.5943 16.2526 43.4795 16.6806 43.4795C17.2234 43.4795 17.7557 43.7403 17.9958 44.1472C18.1211 44.3454 18.215 44.7836 18.2672 45.3052C18.4447 47.3814 19.3633 48.7689 21.1378 49.6244L21.9207 50H25H28.0793L28.8935 49.614C30.5532 48.8211 31.5031 47.4231 31.6806 45.5243C31.7328 44.9714 31.8267 44.4393 31.8789 44.335C32.0981 43.9386 32.6096 43.563 33.0167 43.5108C33.6221 43.4273 33.9248 43.5317 34.4363 44.0011C36.2317 45.66 38.7996 45.9208 40.7307 44.6375C41.5658 44.0742 44.499 41.0591 44.8539 40.3914C45.1879 39.7654 45.4593 38.7222 45.4593 38.0232C45.4593 36.813 44.8956 35.3941 44.0605 34.5073C43.8622 34.3091 43.6534 34.0378 43.5908 33.9126C43.4238 33.5892 43.4447 32.9841 43.643 32.5668C43.904 32.0139 44.3528 31.8052 45.5115 31.7009C47.4217 31.5131 48.8205 30.5637 49.6138 28.9049L50 28.0912V25.0135V21.9358L49.6138 21.1221C48.8205 19.4632 47.4217 18.5139 45.5115 18.3365C44.1336 18.2009 43.6221 17.8566 43.5073 16.9802C43.4238 16.3751 43.5282 16.1143 44.1127 15.4466C45.595 13.7669 45.8768 11.5448 44.8539 9.63556C44.5094 8.96786 41.5762 5.96322 40.7202 5.38942C39.6347 4.65912 38.1733 4.3983 36.8685 4.71129C36.0021 4.90951 35.5324 5.14946 34.8225 5.7337C34.5094 5.98409 34.1441 6.26577 33.9875 6.35966C33.6221 6.61005 32.881 6.59962 32.4739 6.34924C31.9624 6.02582 31.7954 5.62937 31.6806 4.51307C31.5031 2.60386 30.5532 1.20587 28.8935 0.412979L28.0793 0.0269661L25.1566 0.0060997C22.9958 -0.0147629 22.1294 0.0165329 21.8163 0.120861ZM27.5052 3.57411C28.0271 3.8871 28.2255 4.29398 28.3299 5.35812C28.4969 6.98563 29.1127 8.13324 30.2714 9.02003C31.2317 9.75032 31.8372 9.93811 33.2985 9.93811C34.5198 9.93811 34.572 9.92768 35.3445 9.56253C35.7724 9.35387 36.3779 8.96786 36.6806 8.69661C37.4948 7.97675 37.9541 7.85155 38.6013 8.17497C39.0605 8.40449 41.5658 10.8979 41.8163 11.3674C42.1608 12.0455 42.0564 12.5359 41.4092 13.2453C40.8455 13.8713 40.4906 14.4555 40.2296 15.2275C40.0522 15.7805 40.0209 16.0517 40.0522 16.9281C40.1148 18.1487 40.3549 18.879 40.9812 19.7136C41.8476 20.8821 43.0376 21.5185 44.666 21.6854C45.7307 21.7898 46.1378 21.988 46.4509 22.5096C46.6388 22.8435 46.6597 23.0521 46.6597 25.0135C46.6597 26.9748 46.6388 27.1835 46.4509 27.5174C46.1378 28.039 45.7307 28.2372 44.666 28.3415C43.0376 28.5085 41.8476 29.1449 40.9812 30.3133C40.2714 31.2523 40.0835 31.8678 40.0835 33.3075C40.0835 34.5282 40.0939 34.5803 40.4593 35.3524C40.6681 35.7801 41.0543 36.3852 41.3257 36.6878C42.0668 37.5224 42.1712 37.9606 41.8163 38.6596C41.5658 39.129 39.0605 41.6225 38.6013 41.852C37.9436 42.1754 37.5052 42.0607 36.6597 41.3199C35.5532 40.3497 34.4572 39.9741 32.9436 40.0576C31.858 40.1202 31.0752 40.4018 30.2714 41.0069C29.1127 41.8937 28.4969 43.0413 28.3299 44.6688C28.2255 45.733 28.0271 46.1399 27.5052 46.4529C27.1712 46.6406 26.9624 46.6615 25 46.6615C23.0376 46.6615 22.8288 46.6406 22.4948 46.4529C21.952 46.1294 21.7745 45.733 21.6597 44.5645C21.5866 43.7195 21.5031 43.4169 21.19 42.7701C20.6889 41.7581 19.9269 41.0069 18.8831 40.4853C18.0689 40.0889 18.0689 40.0889 16.7641 40.0889C14.9791 40.0889 14.739 40.1932 12.9541 41.6329C12.4843 42.0189 11.8998 42.1024 11.4196 41.8624C10.9395 41.6225 8.43424 39.1395 8.18372 38.6596C7.83925 37.9814 7.94363 37.4911 8.59081 36.7817C9.55115 35.7384 9.96869 34.6742 9.96869 33.318C9.96869 31.3045 8.95616 29.6665 7.19207 28.811C6.60752 28.5293 6.24217 28.4354 5.42798 28.352C4.26931 28.2268 3.87265 28.0494 3.54906 27.5174C3.36117 27.1835 3.34029 26.9748 3.34029 25.0135C3.34029 23.0521 3.36117 22.8435 3.54906 22.5096C3.86221 21.988 4.26931 21.7898 5.33403 21.6854C6.96242 21.5185 8.11065 20.903 8.99791 19.7449C9.64509 18.8894 9.88518 18.1696 9.94781 16.9281C9.97912 16.0517 9.94781 15.7805 9.77036 15.2275C9.50939 14.4555 9.15449 13.8713 8.59081 13.2453C7.94363 12.5359 7.83925 12.0455 8.18372 11.3674C8.29854 11.1587 9.02923 10.345 9.83298 9.56253C11.3466 8.07064 11.5971 7.91415 12.3069 8.04978C12.5052 8.09151 12.9228 8.35233 13.2881 8.66531C14.3946 9.62513 15.3445 9.97984 16.7641 9.99028C18.1524 9.99028 19.3528 9.4895 20.2923 8.51925C21.1482 7.6429 21.5136 6.78741 21.6701 5.36855C21.7745 4.35657 21.9415 3.92883 22.3382 3.66801C22.7871 3.37589 23.215 3.32373 25.2088 3.34459C26.9415 3.36546 27.1816 3.38632 27.5052 3.57411Z" fill="#A2A3AB"/>
<path d="M22.5992 13.5374C20.9812 13.8817 19.8017 14.372 18.4447 15.2796C16.1169 16.8237 14.3633 19.3067 13.6221 22.0923C13.2777 23.4068 13.215 25.9524 13.4969 27.3086C14.4885 32.0347 17.9541 35.5192 22.6514 36.4999C23.9353 36.7712 26.0647 36.7712 27.3486 36.4999C31.8059 35.561 35.2088 32.3372 36.3779 27.9346C36.7223 26.6201 36.785 24.0745 36.5031 22.7182C35.5115 17.9922 32.0459 14.5076 27.3486 13.5269C26.0856 13.2661 23.8413 13.2661 22.5992 13.5374ZM27.0355 16.9802C27.8393 17.1784 29.5825 18.0548 30.261 18.6286C31.1482 19.3693 31.8372 20.2352 32.3695 21.3098C33.0063 22.593 33.2464 23.6259 33.2464 25.0134C33.2464 28.258 31.4405 31.0853 28.4969 32.4833C27.2965 33.0467 26.2944 33.2658 24.9583 33.2658C23.6326 33.2553 22.5574 32.9945 21.2944 32.379C19.5825 31.5235 18.3194 30.2194 17.5052 28.4563C16.9624 27.2982 16.7537 26.328 16.7537 24.9821C16.7537 19.6406 21.7641 15.7387 27.0355 16.9802Z" fill="#A2A3AB"/>
</svg>
