<svg width="51" height="45" viewBox="0 0 51 45" fill="none" xmlns="http://www.w3.org/2000/svg">
<path d="M21.9937 0.140625C17.7105 0.457031 13.3477 1.06348 10.0805 1.81055C7.56035 2.39062 4.49238 3.39258 4.03418 3.78809C3.83496 3.95508 3.83496 4.07812 3.83496 14.001V24.0381L4.0541 24.9258C5.43867 30.4277 8.7457 35.0332 14.2939 39.1641C16.6248 40.9043 19.4537 42.4951 22.95 44.042C24.6732 44.7979 25.2211 45 25.5498 45C25.8686 45 26.3666 44.8242 27.7512 44.2266C32.4129 42.1963 35.5605 40.2891 38.7281 37.5732C43.1309 33.8115 45.7107 29.8301 46.9459 24.917L47.165 24.0381V14.001C47.165 4.07812 47.165 3.95508 46.9658 3.78809C46.5275 3.41016 43.7385 2.4873 41.2582 1.88965C38.6684 1.27441 35.0525 0.711914 31.377 0.360352C27.4623 -0.0263672 24.9621 -0.0791016 21.9937 0.140625ZM27.4922 1.8457C34.3852 2.25879 40.9494 3.39258 44.8043 4.84277L45.2227 5.00098V13.7549C45.2227 19.4414 45.1828 22.8076 45.1131 23.3613C44.9736 24.5039 44.4557 26.2705 43.8979 27.5361C41.1586 33.7061 35.5008 38.7422 27.2033 42.4072L25.49 43.1631L23.976 42.5039C14.2441 38.2852 7.91895 32.0186 6.06621 24.7412C5.83711 23.8623 5.83711 23.8447 5.80723 14.4141L5.76738 4.96582L6.89297 4.58789C10.8973 3.2168 16.9635 2.25 24.2051 1.81934C25.2012 1.75781 26.1176 1.7666 27.4922 1.8457Z" fill="black"/>
<path d="M24.5039 4.80762C23.1891 4.86035 20.4199 5.10645 18.7266 5.32617C14.9514 5.79199 11.5846 6.55664 9.41309 7.42676C8.77559 7.69043 8.63614 7.77832 8.50664 8.05078C8.37715 8.32324 8.35723 9.36914 8.39707 16.0664L8.42696 23.7744L8.6959 24.7412C9.04453 26.0068 9.2836 26.6309 9.88125 27.8613C11.6145 31.4385 15.0311 34.875 19.3541 37.3887C21.7348 38.7686 24.8525 40.1836 25.5199 40.1836C25.9781 40.1924 28.3289 39.1992 30.1916 38.2148C33.9369 36.2461 36.7559 34.0137 39.007 31.2451C40.4514 29.4785 41.6865 27.0967 42.3141 24.873L42.573 23.9502L42.6029 16.0488C42.6328 8.86816 42.6229 8.12988 42.4734 7.93652C42.1049 7.43555 39.007 6.45996 36.0088 5.89746C33.8672 5.50195 32.0941 5.24707 29.9824 5.05371C28.6377 4.93066 25.3107 4.72852 25.2012 4.76367C25.1713 4.77246 24.8625 4.79004 24.5039 4.80762ZM29.1855 6.81152C31.5164 7.03125 36.1682 7.70801 36.3275 7.85742C36.3574 7.88379 10.6482 21.9814 10.449 22.043C10.3992 22.0605 10.3594 19.3008 10.3594 15.5391V9L11.3355 8.68359C13.8258 7.875 17.8002 7.16309 21.7746 6.82031C22.6512 6.74121 23.5377 6.66211 23.7568 6.64453C24.5238 6.57422 27.7512 6.6709 29.1855 6.81152ZM39.8139 8.7627L40.541 9.00879V12.4365V15.873L27.7213 22.8955C20.659 26.7539 14.6625 30.0498 14.3736 30.208L13.8557 30.498L13.2381 29.6807C12.8994 29.2412 12.3615 28.4063 12.0428 27.835C11.465 26.8066 10.6881 24.8818 10.6383 24.3633C10.6084 24.0996 10.7678 24.0117 24.8027 16.3213C32.6121 12.041 39.017 8.53418 39.0369 8.53418C39.0568 8.52539 39.4055 8.63086 39.8139 8.7627ZM40.3418 24.1436C39.1266 29.5225 34.2357 34.4531 26.8746 37.7227L25.4701 38.3467L23.8664 37.6348C21.1172 36.4219 18.099 34.5059 15.9973 32.625L15.2203 31.9219L19.384 29.6367C21.685 28.3711 27.3727 25.251 32.0244 22.6934L40.4912 18.0439L40.5211 20.6455C40.541 22.9658 40.5211 23.3438 40.3418 24.1436Z" fill="black"/>
</svg>
