<svg width="57" height="21" viewBox="0 0 57 21" fill="none" xmlns="http://www.w3.org/2000/svg">
<path d="M22.4023 0.933008C20.7224 0.96875 19.948 1.01641 19.8884 1.11172C19.8408 1.1832 19.7574 1.57637 19.7216 1.96953C19.6144 2.86309 19.5787 3.14902 19.4357 3.82812C19.3761 4.12598 19.2927 4.66211 19.2451 5.01953C19.1259 5.97266 19.1021 6.16328 19.0187 6.41348C18.983 6.53262 18.9234 6.86621 18.8877 7.16406C18.8519 7.46191 18.7924 7.78359 18.7685 7.87891C18.7447 7.97422 18.6851 8.35547 18.6494 8.71289C18.6136 9.07031 18.5302 9.58262 18.4707 9.84473C18.3396 10.4404 18.2086 11.2625 18.1609 11.8105C18.149 12.0369 18.1132 12.2275 18.1013 12.2275C18.0775 12.2275 17.9822 13.002 17.9584 13.3832C17.9465 13.5738 17.8988 13.7168 17.8511 13.7168C17.7916 13.7168 17.7677 13.7525 17.7797 13.8002C17.7916 13.8598 17.7677 14.11 17.7201 14.3721C17.6724 14.6342 17.6129 15.0869 17.5771 15.3848C17.5414 15.6826 17.4937 16.0043 17.458 16.0996C17.4341 16.1949 17.3746 16.4928 17.3388 16.7549C17.3031 17.0289 17.2554 17.3506 17.2316 17.4697C17.1125 18.0893 17.0291 18.7088 16.9814 19.1377C16.9576 19.3998 16.9218 19.6977 16.898 19.793C16.8623 19.9479 17.2078 19.9717 19.3285 20.0074L21.8066 20.0312L21.8781 19.7334C21.9258 19.5666 21.9258 19.3879 21.8781 19.3521C21.8424 19.3164 21.8543 19.2211 21.9138 19.1496C21.9734 19.0781 22.0449 18.7207 22.0806 18.3633C22.1283 18.0059 22.2355 17.2314 22.3427 16.6596C22.4381 16.0758 22.4976 15.5516 22.4619 15.492C22.4142 15.4324 22.4381 15.3848 22.4976 15.3848C22.5572 15.3848 22.6049 15.3133 22.6168 15.2299C22.6406 14.8844 22.7478 13.8955 22.7716 13.8359C22.7836 13.8002 22.8074 13.6453 22.8193 13.4785C22.8312 13.3117 22.8789 13.0854 22.9384 12.9662C22.9861 12.8471 22.998 12.7279 22.9623 12.6922C22.9265 12.6564 22.9504 12.4539 23.0099 12.2514C23.141 11.8105 23.5937 9.09414 23.6414 8.4627C23.6533 8.23633 23.7129 7.97422 23.7605 7.90273C23.8082 7.81934 23.8201 7.71211 23.7843 7.65254C23.7367 7.59297 23.7605 7.41426 23.8201 7.25938C23.9154 7.00918 23.9988 6.54453 24.1418 5.37695C24.1775 5.15059 24.2847 4.54297 24.38 4.03066C24.4873 3.51836 24.5349 3.06563 24.4992 3.02988C24.4634 2.99414 24.4754 2.89883 24.5349 2.82734C24.5945 2.75586 24.6779 2.3627 24.7136 1.95762C24.7613 1.54062 24.8209 1.12363 24.8566 1.02832C24.9043 0.933008 24.9162 0.861525 24.8924 0.873438C24.8685 0.897266 23.7486 0.921095 22.4023 0.933008Z" fill="#CFD9E8"/>
<path d="M12.6209 1.14746C12.597 1.42148 12.5732 1.48105 12.4183 1.75508C12.3468 1.89805 12.3111 2.04102 12.3588 2.07676C12.3945 2.12441 12.3707 2.21973 12.2992 2.30313C12.1681 2.46992 11.1912 4.95996 11.1435 5.25781C11.1316 5.35313 11.0363 5.62715 10.9291 5.85352C10.6789 6.41348 9.89254 8.52227 9.89254 8.64141C9.89254 8.68906 9.82106 8.90352 9.72574 9.10606C9.63043 9.32051 9.47555 9.72559 9.38023 10.0234C9.28492 10.3213 9.13004 10.7145 9.05856 10.917C8.97516 11.1076 8.86793 11.3816 8.82027 11.5127C8.77262 11.6438 8.64156 11.9535 8.53434 12.2037C8.42711 12.4539 8.34371 12.7518 8.34371 12.8828C8.34371 13.002 8.28414 13.1449 8.22457 13.1807C8.15309 13.2283 8.11734 13.3236 8.12926 13.3951C8.15309 13.4785 8.10543 13.5619 8.04586 13.5977C7.98629 13.6334 7.91481 13.5023 7.90289 13.3117C7.89098 13.1211 7.84332 12.8828 7.79566 12.7756C7.75992 12.6684 7.70035 12.3705 7.67652 12.1084C7.6527 11.8582 7.58121 11.608 7.53356 11.5723C7.4859 11.5365 7.27145 11.1314 7.05699 10.6787C5.98473 8.4627 3.95934 6.16328 1.51695 4.42383C1.1357 4.14981 0.790196 3.95918 0.74254 4.00684C0.706797 4.04258 0.718711 4.11406 0.790196 4.16172C0.849766 4.20938 0.897422 4.32852 0.897422 4.42383C0.885508 4.51914 0.933165 4.70977 1.00465 4.84082C1.06422 4.97188 1.1357 5.21016 1.15953 5.37695C1.2191 5.925 1.23102 5.97266 1.33824 5.97266C1.39781 5.97266 1.43356 6.04414 1.40973 6.11563C1.39781 6.19902 1.45738 6.56836 1.5527 6.92578C1.63609 7.2832 1.70758 7.60488 1.69566 7.64062C1.69566 7.67637 1.73141 7.74785 1.77906 7.81934C1.83863 7.87891 1.94586 8.28398 2.02926 8.71289C2.11266 9.1418 2.2318 9.5707 2.27945 9.67793C2.33902 9.78516 2.41051 10.0473 2.44625 10.2736C2.48199 10.5 2.56539 10.8336 2.62496 11.0361C2.77984 11.4889 3.54234 14.3602 3.80445 15.3848C3.89977 15.8137 4.03082 16.1711 4.07848 16.1949C4.12613 16.2188 4.12613 16.3141 4.09039 16.4094C4.05465 16.5047 4.07848 16.5762 4.12613 16.5762C4.1857 16.5762 4.24527 16.6953 4.24527 16.8383C4.2691 17.1004 4.37633 17.5889 4.41207 17.5889C4.42398 17.5889 4.44781 17.7199 4.48356 17.8867C4.50738 18.0535 4.56695 18.268 4.61461 18.3633C4.67418 18.5301 4.74566 18.7803 4.81715 19.1615C4.82906 19.2449 4.87672 19.3521 4.92438 19.3879C4.97203 19.4355 5.00777 19.6023 5.00777 19.7572V20.0312H7.66461H10.3334L10.6431 19.2449C10.8218 18.8041 10.9291 18.399 10.8933 18.3514C10.8576 18.2918 10.8933 18.2441 10.9648 18.2441C11.0363 18.2441 11.072 18.1965 11.0363 18.1369C10.9886 18.0773 11.0125 18.0059 11.0839 17.982C11.1554 17.9582 11.2269 17.8391 11.2507 17.708C11.2746 17.577 11.4056 17.2195 11.5486 16.8979C11.6796 16.5881 11.763 16.3379 11.7154 16.3379C11.6796 16.3379 11.7273 16.2426 11.8226 16.1234C11.9179 16.0162 12.0609 15.7303 12.1443 15.5039C12.2873 15.1227 12.3826 14.8725 12.6447 14.2529C13.0021 13.407 13.2166 12.7637 13.1332 12.7637C13.0855 12.7637 13.1093 12.716 13.1927 12.6684C13.3714 12.5492 13.848 11.465 13.7646 11.334C13.7289 11.2744 13.7527 11.2029 13.8242 11.1553C13.8838 11.1195 13.9433 11.0004 13.9433 10.9051C13.9433 10.7979 14.0267 10.643 14.122 10.5477C14.2173 10.4404 14.3007 10.2617 14.3007 10.1426C14.3007 10.0234 14.3603 9.88047 14.4199 9.84473C14.4914 9.80898 14.539 9.70176 14.539 9.61836C14.539 9.52305 14.6343 9.24902 14.7416 8.99883C14.8488 8.73672 14.9441 8.51035 14.956 8.47461C14.9679 8.43887 15.0394 8.24824 15.1347 8.05762C15.2896 7.7002 15.3611 7.52148 15.8377 6.41348C15.9806 6.0918 16.064 5.78203 16.0164 5.72246C15.9806 5.66289 16.0045 5.61523 16.0521 5.61523C16.1593 5.61523 16.6359 4.41191 16.5763 4.3166C16.5644 4.29277 16.5882 4.2332 16.6478 4.19746C16.755 4.12598 17.1601 3.13711 17.1482 2.9584C17.1482 2.91074 17.2316 2.72012 17.315 2.54141C17.5295 2.13633 17.7201 1.71934 17.875 1.29043L17.9941 0.96875H15.3134C13.014 0.96875 12.6328 0.992579 12.6209 1.14746Z" fill="#CFD9E8"/>
<path d="M33.3633 1.11193C33.2203 1.15959 33.0654 1.18342 33.0177 1.15959C32.8867 1.07619 31.2187 1.51701 30.8017 1.73146C30.6111 1.83869 30.3728 1.92209 30.3013 1.92209C30.2179 1.92209 30.1465 1.95783 30.1465 2.00549C30.1465 2.06506 29.9201 2.20803 29.658 2.33908C28.967 2.66076 27.5968 4.06662 27.6564 4.37639C27.6564 4.42404 27.6207 4.49553 27.5611 4.53127C27.3824 4.66232 27.1322 5.18654 26.9773 5.75842C26.8224 6.37795 26.8224 8.09357 26.9892 8.3676C27.0488 8.46291 27.1084 8.60588 27.1203 8.68928C27.1679 8.93947 27.7517 9.78537 27.8828 9.78537C27.9543 9.78537 28.0019 9.85685 28.0019 9.95217C28.0019 10.119 28.8359 10.8576 29.0265 10.8576C29.0742 10.8576 29.2291 10.9649 29.3601 11.084C29.6461 11.3461 30.0988 11.6082 31.6834 12.4303C32.3029 12.752 32.8867 13.1213 32.9701 13.2404C33.0654 13.3715 33.2084 13.4787 33.2918 13.4787C33.3752 13.4787 33.4466 13.5502 33.4586 13.6217C33.6254 14.7535 33.6254 14.8012 33.3633 15.1944C33.1011 15.5637 32.3863 15.9807 31.874 16.0522C31.2068 16.1475 28.5738 16.0879 28.4785 15.9688C28.4427 15.9211 28.1568 15.8258 27.8232 15.7543C27.0607 15.5756 27.1084 15.5994 26.2982 15.2182C25.5357 14.8727 25.357 14.8369 25.3927 15.0514C25.4166 15.1348 25.3808 15.5041 25.3213 15.8615C25.2736 16.219 25.214 16.6002 25.2021 16.6955C25.1783 16.7908 25.1306 17.0649 25.0949 17.2912C25.0472 17.5176 24.9877 17.8988 24.9638 18.1252C24.94 18.3516 24.9043 18.5422 24.8924 18.5422C24.8804 18.5422 24.8566 18.6971 24.8328 18.8758C24.809 19.1379 24.8447 19.1975 24.9758 19.1498C25.0591 19.1141 25.1425 19.126 25.1425 19.1856C25.1425 19.3047 26.9654 19.7694 27.7636 19.8647C28.0615 19.9004 28.4666 19.9481 28.6572 19.9838C29.4435 20.1029 32.0527 20.0315 32.7675 19.8647C32.8629 19.8408 33.1726 19.7813 33.4586 19.7336C33.7326 19.686 33.959 19.6026 33.959 19.543C33.959 19.4834 33.9947 19.4477 34.0543 19.4596C34.2092 19.5072 35.2695 19.1498 35.2695 19.0545C35.2695 19.0069 35.3291 18.9592 35.4125 18.9592C35.484 18.9592 35.7222 18.8281 35.9248 18.6613C36.1392 18.5065 36.3418 18.4112 36.3894 18.4469C36.4252 18.4945 36.4609 18.4588 36.4609 18.3873C36.4609 18.3039 36.5443 18.2444 36.6515 18.2444C36.7468 18.2444 36.8064 18.1967 36.7588 18.1371C36.723 18.0776 36.8064 17.9942 36.9375 17.9465C37.0685 17.9108 37.1758 17.7797 37.1758 17.6844C37.1758 17.5772 37.2115 17.5176 37.2472 17.5653C37.283 17.601 37.4379 17.4938 37.5808 17.3151C37.9383 16.8742 38.2718 16.3381 38.1884 16.3381C38.1408 16.3381 38.2004 16.2547 38.2957 16.1475C38.4625 15.9926 38.522 15.7424 38.4744 15.4326C38.4744 15.385 38.522 15.3135 38.5816 15.2778C38.9152 15.0752 38.808 12.049 38.4625 12.049C38.4029 12.049 38.391 11.9895 38.4267 11.9299C38.4625 11.8584 38.4386 11.8108 38.3791 11.8108C38.3076 11.8108 38.2599 11.775 38.2599 11.7154C38.2957 11.4772 38.2004 11.3104 37.7119 10.7623C37.1877 10.1785 35.7461 9.09435 35.7461 9.27306C35.7461 9.33263 35.6984 9.30881 35.6508 9.23732C35.5197 9.0467 33.7564 8.1174 33.673 8.2008C33.6373 8.24846 33.6015 8.22463 33.6015 8.15314C33.6015 8.08166 33.4228 7.96252 33.2203 7.8672C33.0058 7.78381 32.7795 7.64084 32.7318 7.55744C32.6722 7.47404 32.5888 7.42639 32.5293 7.46213C32.4697 7.49787 32.3148 7.31916 32.1838 7.06896C31.9216 6.55666 31.9455 6.06818 32.2314 5.77033C32.3267 5.67502 32.4101 5.54396 32.4101 5.48439C32.4101 5.42482 32.4816 5.37717 32.565 5.37717C32.6365 5.37717 32.8748 5.28185 33.0654 5.16271C33.5539 4.87678 36.2226 4.87678 37.1519 5.17463C37.4855 5.28185 37.7715 5.32951 37.7715 5.29377C37.7715 5.25803 37.8429 5.29377 37.9263 5.36525C38.0216 5.43674 38.1289 5.46057 38.1646 5.41291C38.2123 5.37717 38.248 5.38908 38.248 5.46057C38.248 5.52014 38.3791 5.63928 38.534 5.71076C38.808 5.8299 38.8199 5.80607 38.9152 5.401C39.0105 4.88869 39.0463 4.73381 39.1177 4.2215C39.1535 4.00705 39.2131 3.74494 39.2488 3.6258C39.2726 3.50666 39.3322 3.17307 39.3679 2.87521C39.4156 2.57736 39.4633 2.19611 39.499 2.02932C39.5586 1.70764 39.5466 1.70764 38.4267 1.37404C37.2711 1.01662 34.0543 0.861736 33.3633 1.11193Z" fill="#CFD9E8"/>
<path d="M47.3027 1.08789C47.2074 1.14746 47.0883 1.15938 47.0406 1.13555C46.9929 1.09981 46.9453 1.13555 46.9453 1.19512C46.9453 1.2666 46.85 1.32617 46.7308 1.32617C46.4091 1.32617 45.873 2.07676 45.4203 3.14902C44.8127 4.59062 44.5625 5.17441 44.4314 5.4127C44.3718 5.53184 44.348 5.6748 44.3838 5.73438C44.4314 5.80586 44.4076 5.85352 44.3361 5.85352C44.2765 5.85352 44.1574 6.05606 44.074 6.29434C44.0025 6.54453 43.8834 6.81855 43.8119 6.89004C43.7523 6.97344 43.7404 7.04492 43.7761 7.04492C43.8238 7.04492 43.7761 7.18789 43.6808 7.3666C43.4306 7.83125 43.1209 8.54609 43.0851 8.73672C43.0732 8.82012 42.9779 9.04648 42.8707 9.24902C42.7754 9.43965 42.7158 9.67793 42.7396 9.74941C42.7754 9.83281 42.7396 9.9043 42.68 9.9043C42.6205 9.9043 42.5013 10.083 42.4179 10.2855C42.3465 10.5 42.1916 10.8336 42.0843 11.0361C41.9771 11.2268 41.9056 11.4055 41.9175 11.4174C41.9175 11.4412 41.858 11.6318 41.7627 11.8582C41.6674 12.0965 41.584 12.3705 41.584 12.4777C41.584 12.585 41.4767 12.7994 41.3457 12.9662C41.2146 13.133 41.1074 13.3594 41.1074 13.4785C41.1074 13.5857 41.0716 13.7168 41.024 13.7645C40.9644 13.8121 40.9287 13.8955 40.9168 13.9313C40.9168 13.9789 40.8095 14.2291 40.6904 14.4912C40.2496 15.4563 40.1781 15.6707 40.2258 15.766C40.2615 15.8137 40.2377 15.8613 40.1662 15.8613C40.059 15.8613 39.5824 17.1004 39.6896 17.1242C39.7134 17.1242 39.642 17.2195 39.5347 17.3387C39.4156 17.4578 39.3203 17.6246 39.3203 17.7199C39.3203 17.8152 39.1892 18.1607 39.0224 18.4943C38.8556 18.816 38.7484 19.1377 38.7841 19.1973C38.8199 19.2449 38.7841 19.3164 38.7246 19.3402C38.6531 19.3641 38.5697 19.5189 38.5459 19.7096L38.4863 20.0312H41.0478C43.5974 20.0312 43.6093 20.0312 43.7285 19.7572C44.2408 18.4824 44.5744 17.5531 44.634 17.2434C44.6697 17.0408 44.7412 16.8502 44.7888 16.8145C44.8484 16.7787 44.9199 16.6357 44.9675 16.4809L45.0509 16.2188L47.8746 16.2426L50.6982 16.2783L50.7935 16.8145C50.8531 17.1123 50.9722 17.7199 51.0795 18.1846C51.1748 18.6373 51.282 19.1734 51.3058 19.376C51.3416 19.5666 51.3892 19.8049 51.4131 19.8764C51.4488 19.9955 52.0326 20.0312 53.7482 20.0312H56.0238L55.9523 19.6977C55.9166 19.5189 55.857 19.2092 55.8332 19.0186C55.7379 18.268 55.6068 17.7676 55.5115 17.6961C55.4519 17.6604 55.4281 17.5889 55.4638 17.5293C55.4996 17.4697 55.4638 17.1838 55.3924 16.9098C55.309 16.6238 55.2494 16.3498 55.2732 16.2902C55.2851 16.2426 55.2375 16.1234 55.166 16.052C55.1064 15.9686 55.0707 15.8732 55.1064 15.8375C55.166 15.7779 54.9396 14.527 54.6418 13.2164C54.2486 11.5127 53.8793 9.68984 53.8316 9.2252C53.8316 9.16563 53.784 9.02266 53.7363 8.8916C53.6886 8.76055 53.6052 8.39121 53.5695 8.06953C53.5218 7.74785 53.4384 7.40234 53.3789 7.29512C53.3312 7.18789 53.2478 6.8543 53.2002 6.56836C53.0215 5.37695 52.9023 4.75742 52.7832 4.36426C52.7236 4.16172 52.6402 3.7209 52.6045 3.37539C52.5568 3.0418 52.4853 2.75586 52.4377 2.75586C52.39 2.75586 52.3543 2.66055 52.3424 2.54141C52.3185 2.2793 52.2232 1.64785 52.1875 1.56445C52.1756 1.52871 52.1517 1.39766 52.1398 1.2666C52.1279 1.04024 52.0326 1.02832 49.8047 1.00449C48.5179 0.992579 47.398 1.02832 47.3027 1.08789ZM48.5537 7.14023C48.6013 7.37852 48.6847 7.74785 48.7443 7.96231C48.8158 8.16484 48.8873 8.48652 48.923 8.67715C48.9588 8.85586 49.0898 9.41582 49.2209 9.9043C49.3519 10.3928 49.483 10.9527 49.5187 11.1553C49.5425 11.3459 49.6021 11.5961 49.6379 11.6914C49.6855 11.7867 49.7332 11.9893 49.757 12.1322C49.7927 12.4062 49.7808 12.4062 48.1367 12.4062H46.4925L46.7666 11.5961C47.1121 10.5834 47.2312 10.1188 47.1955 9.92813C47.1836 9.85664 47.2312 9.78516 47.3146 9.78516C47.3861 9.78516 47.4218 9.71367 47.3861 9.61836C47.3504 9.52305 47.3623 9.42773 47.4218 9.40391C47.4814 9.38008 47.5529 9.23711 47.5767 9.07031C47.6006 8.90352 47.6601 8.68906 47.6959 8.59375C47.8627 8.20059 48.1248 7.37852 48.1129 7.30703C48.0771 7.11641 48.2916 6.58027 48.3869 6.62793C48.4345 6.66367 48.5179 6.89004 48.5537 7.14023Z" fill="#CFD9E8"/>
</svg>
