<svg width="30" height="30" viewBox="0 0 30 30" fill="none" xmlns="http://www.w3.org/2000/svg">
<g clip-path="url(#clip0_86_288)">
<path d="M13.0957 6.45122C11.127 6.52153 10.4648 6.72075 10.002 7.38286C9.84961 7.59966 9.87891 7.66411 10.1836 7.72857C10.752 7.85161 11.2148 8.14458 11.4023 8.502C11.6895 9.05864 11.877 10.8809 11.7773 12.1583C11.6309 14.0157 11.4258 14.6778 10.957 14.7774C10.4941 14.877 9.71484 14.2383 9.05273 13.2188C8.52539 12.4102 7.04883 9.55669 6.5625 8.40825C6.25781 7.68755 6.12891 7.51177 5.76562 7.32427L5.47852 7.17778L3.13477 7.19536C1.8457 7.20122 0.691406 7.22466 0.568359 7.24224C0.445312 7.25982 0.269531 7.34185 0.175781 7.42388C0.0234375 7.54692 0 7.61138 0 7.86919C0 8.11528 0.0820312 8.3438 0.474609 9.22271C1.95703 12.5157 3.62109 15.4278 5.37891 17.8067C6.7793 19.7051 7.61719 20.5899 8.79492 21.4219C10.459 22.5997 11.7129 23.1622 13.2129 23.4083C13.9277 23.5254 16.5703 23.5254 16.8926 23.4141C17.4082 23.2266 17.5254 22.9864 17.584 21.9961C17.6543 20.9004 17.8242 20.379 18.2754 19.9161C18.6562 19.5176 18.8203 19.4825 19.2363 19.6934C19.6289 19.8985 19.998 20.2442 20.8711 21.2227C21.7441 22.2071 22.2246 22.6758 22.6582 22.9805C22.9746 23.1973 23.5898 23.4551 23.9355 23.5196C24.2109 23.5723 25.8164 23.5665 27.8438 23.502L29.291 23.4551L29.5723 23.2852C29.8945 23.086 30 22.9161 30 22.5821C30 21.7149 29.2383 20.6661 26.9238 18.3692C25.2129 16.67 25.0957 16.5118 25.1543 15.9786C25.207 15.5684 25.3945 15.2813 26.9238 13.2422C28.9043 10.6055 29.5605 9.58013 29.8887 8.61919C30.041 8.17974 30.0352 7.67583 29.8828 7.51177C29.5898 7.20122 29.5488 7.19536 26.4844 7.20708C24.832 7.20708 23.5547 7.23638 23.4258 7.27153C23.127 7.34771 22.9688 7.5645 22.6758 8.29692C22.0371 9.89653 20.7305 12.2286 19.793 13.4649C19.377 14.0098 18.6973 14.6602 18.457 14.7364C18.2578 14.8008 17.918 14.584 17.7715 14.2911C17.5371 13.8399 17.5137 13.3067 17.584 10.6348C17.6543 7.99224 17.6367 7.70513 17.3848 7.21294C17.3145 7.06646 17.1855 6.89653 17.1035 6.83794C16.8809 6.67388 16.1191 6.50982 15.4395 6.47466C15.1172 6.45708 14.7246 6.43364 14.5605 6.42192C14.4023 6.41607 13.7402 6.42778 13.0957 6.45122Z" fill="white"/>
</g>
<defs>
<clipPath id="clip0_86_288">
<rect width="30" height="30" fill="white"/>
</clipPath>
</defs>
</svg>
