<svg width="30" height="30" viewBox="0 0 30 30" fill="none" xmlns="http://www.w3.org/2000/svg">
<path d="M10.4883 4.92211C7.42383 5.02172 5.25001 5.17992 4.23633 5.385C2.97071 5.64281 1.9336 6.55687 1.53516 7.7639C1.08985 9.09398 0.808599 13.1721 0.931645 16.3889C1.07227 19.8928 1.34766 21.6448 1.9043 22.4827C2.56055 23.4729 3.39844 23.9592 4.80469 24.1643C7.30665 24.5276 13.6816 24.6975 19.0137 24.551C23.3496 24.428 25.4883 24.2405 26.3965 23.9006C26.8359 23.7366 27.4863 23.262 27.8086 22.8694C28.4766 22.0549 28.7109 21.0881 28.957 18.1936C29.0566 17.0217 29.0566 12.3401 28.957 11.1623C28.8164 9.46312 28.6465 8.40844 28.4121 7.69359C28.0899 6.72094 27.1406 5.80687 26.1328 5.50805C25.3652 5.27367 23.6426 5.09789 20.9766 4.9807C19.1543 4.89867 12.4512 4.85765 10.4883 4.92211ZM15.7969 12.6448C17.6953 13.7346 19.2891 14.6545 19.3418 14.6838C19.418 14.7248 18.6094 15.2112 15.8731 16.7873C13.9102 17.9123 12.2754 18.844 12.2461 18.8557C12.2051 18.8733 12.1875 17.4319 12.1875 14.7366C12.1875 11.2444 12.1992 10.5998 12.2695 10.6233C12.3106 10.6409 13.8984 11.5491 15.7969 12.6448Z" fill="white"/>
</svg>
